<svg width="246" height="246" viewBox="0 0 246 246" fill="none" xmlns="http://www.w3.org/2000/svg">
<g opacity="0.3">
<path fill-rule="evenodd" clip-rule="evenodd" d="M121.516 9.29414C129.537 15.5154 130.995 27.0606 124.774 35.081L113.596 49.4921L148.35 76.4506C160.63 85.9758 123.079 104.873 125.634 119.051C128.567 135.329 170 147.162 159.064 161.26L132.106 196.015L146.517 207.193C154.457 213.352 155.966 224.729 149.959 232.739L149.774 232.98C143.553 241.001 132.008 242.459 123.988 236.238C116.047 230.079 114.538 218.702 120.546 210.693L120.73 210.451L131.908 196.04L97.1534 169.081C84.091 158.949 120.769 135.108 118.737 119.922C116.666 104.442 76.1107 97.5875 86.4394 84.2718L113.398 49.5168L98.9871 38.3386C90.9666 32.1174 89.5081 20.5722 95.7294 12.5518C101.951 4.53137 113.496 3.07287 121.516 9.29414Z" stroke="url(#paint0_linear_1816_14136)"/>
<path fill-rule="evenodd" clip-rule="evenodd" d="M107.306 10.3583C116.043 15.5253 118.937 26.7966 113.77 35.5335L104.486 51.2319L142.346 73.622C155.723 81.533 120.836 104.987 125.147 118.734C130.098 134.516 172.687 141.062 163.605 156.42L141.214 194.279L156.913 203.564C165.563 208.679 168.486 219.777 163.53 228.476L163.377 228.739C158.21 237.476 146.939 240.37 138.202 235.203C129.552 230.087 126.629 218.989 131.585 210.29L131.738 210.027L141.022 194.329L103.162 171.939C88.933 163.524 122.333 135.274 118.414 120.462C114.42 105.364 73.3249 103.646 81.9033 89.141L104.293 51.2813L88.5951 41.9974C79.8582 36.8304 76.9642 25.5591 82.1312 16.8222C87.2982 8.08529 98.5695 5.1913 107.306 10.3583Z" stroke="url(#paint1_linear_1816_14136)"/>
<path fill-rule="evenodd" clip-rule="evenodd" d="M93.3426 13.1947C102.658 17.226 106.942 28.0457 102.911 37.3613L95.6677 54.0995L136.035 71.568C150.298 77.74 118.625 105.382 124.626 118.479C131.515 133.517 174.59 134.674 167.504 151.049L150.035 191.416L166.773 198.659C175.996 202.65 180.286 213.294 176.46 222.546L176.341 222.826C172.31 232.141 161.49 236.425 152.175 232.394C142.952 228.403 138.662 217.759 142.488 208.507L142.607 208.227L149.85 191.489L109.483 174.021C94.3108 167.455 123.907 135.242 118.163 121.038C112.307 106.56 71.3212 110.006 78.0139 94.5401L95.4821 54.1727L78.7442 46.9295C69.4286 42.8983 65.1448 32.0786 69.176 22.763C73.2072 13.4473 84.027 9.1635 93.3426 13.1947Z" stroke="url(#paint2_linear_1816_14136)"/>
<path fill-rule="evenodd" clip-rule="evenodd" d="M79.8442 17.7585C89.5916 20.5904 95.1978 30.7879 92.3659 40.5353L87.2777 58.0493L129.516 70.3206C144.44 74.6564 116.482 106.05 124.077 118.292C132.796 132.347 175.676 128.097 170.698 145.231L158.426 187.469L175.941 192.557C185.591 195.361 191.182 205.383 188.545 215.041L188.462 215.334C185.63 225.081 175.433 230.688 165.685 227.856C156.036 225.052 150.444 215.029 153.081 205.371L153.164 205.079L158.252 187.565L116.014 175.293C100.139 170.681 125.464 135.012 117.985 121.641C110.361 108.01 70.1301 116.566 74.8317 100.384L87.1028 58.1451L69.5891 53.0569C59.8417 50.225 54.2356 40.0275 57.0674 30.2801C59.8993 20.5327 70.0968 14.9266 79.8442 17.7585Z" stroke="url(#paint3_linear_1816_14136)"/>
<path fill-rule="evenodd" clip-rule="evenodd" d="M67.025 23.9786C77.0504 25.5665 83.8904 34.981 82.3026 45.0064L79.4496 63.0201L122.893 69.9008C138.242 72.332 114.439 106.982 123.509 118.176C133.921 131.027 175.93 121.436 173.139 139.059L166.258 182.502L184.272 185.355C194.197 186.927 201 196.17 199.594 206.082L199.549 206.383C197.961 216.408 188.547 223.248 178.522 221.66C168.596 220.088 161.793 210.846 163.199 200.933L163.244 200.633L166.097 182.619L122.654 175.738C106.326 173.152 126.981 134.59 117.885 122.262C108.613 109.694 69.7714 123.225 72.4076 106.58L79.2881 63.1371L61.2747 60.284C51.2493 58.6962 44.4093 49.2817 45.9971 39.2562C47.585 29.2308 56.9995 22.3907 67.025 23.9786Z" stroke="url(#paint4_linear_1816_14136)"/>
<path fill-rule="evenodd" clip-rule="evenodd" d="M55.0857 31.7564C65.2311 32.0752 73.1972 40.5582 72.8783 50.7036L72.3056 68.9328L116.269 70.3144C131.802 70.8025 112.529 108.163 122.93 118.131C134.871 129.577 175.347 114.796 174.786 132.629L173.404 176.592L191.634 177.165C201.678 177.481 209.586 185.798 209.433 195.809L209.426 196.113C209.108 206.258 200.625 214.224 190.479 213.905C180.435 213.59 172.527 205.272 172.679 195.262L172.687 194.958L173.26 176.729L129.296 175.347C112.773 174.828 128.432 133.981 117.863 122.89C107.088 111.583 70.2493 129.876 70.7787 113.032L72.16 69.0691L53.9311 68.4962C43.7857 68.1774 35.8196 59.6944 36.1385 49.549C36.4573 39.4036 44.9403 31.4376 55.0857 31.7564Z" stroke="url(#paint5_linear_1816_14136)"/>
<path fill-rule="evenodd" clip-rule="evenodd" d="M44.2155 40.9693C54.3209 40.014 63.2873 47.4317 64.2425 57.5371L65.959 75.6943L109.749 71.555C125.221 70.0925 110.782 109.573 122.351 118.16C135.632 128.018 173.936 108.281 175.615 126.044L179.754 169.834L197.911 168.118C207.916 167.172 216.804 174.432 217.907 184.383L217.938 184.685C218.894 194.791 211.476 203.757 201.371 204.712C191.366 205.658 182.478 198.398 181.375 188.447L181.344 188.145L179.627 169.987L135.838 174.127C119.38 175.682 129.796 133.195 117.92 123.516C105.813 113.649 71.5572 136.415 69.9713 119.637L65.8317 75.8478L47.6747 77.5641C37.5694 78.5194 28.6029 71.1017 27.6477 60.9963C26.6925 50.8909 34.1101 41.9245 44.2155 40.9693Z" stroke="url(#paint6_linear_1816_14136)"/>
<path fill-rule="evenodd" clip-rule="evenodd" d="M34.585 51.4717C44.491 49.2575 54.3164 55.4928 56.5306 65.3988L60.5093 83.1977L103.435 73.6028C118.601 70.2126 109.225 111.192 121.779 118.261C136.191 126.377 171.719 101.994 175.611 119.407L185.206 162.333L203.005 158.354C212.812 156.162 222.54 162.251 224.882 171.985L224.951 172.281C227.165 182.187 220.929 192.013 211.023 194.227C201.216 196.419 191.489 190.33 189.147 180.596L189.078 180.3L185.099 162.501L142.174 172.096C126.04 175.702 131.05 132.245 118.054 124.13C104.806 115.858 73.6736 142.738 69.9975 126.291L60.4022 83.366L42.6035 87.3444C32.6975 89.5587 22.8721 83.3233 20.6579 73.4173C18.4437 63.5113 24.679 53.686 34.585 51.4717Z" stroke="url(#paint7_linear_1816_14136)"/>
<path fill-rule="evenodd" clip-rule="evenodd" d="M26.3483 63.0983C35.8986 59.66 46.428 64.6148 49.8664 74.1651L56.0445 91.325L97.4288 76.4257C112.051 71.1614 107.885 112.993 121.225 118.433C136.541 124.678 168.733 96.0353 174.777 112.823L189.676 154.207L206.836 148.029C216.291 144.625 226.705 149.448 230.249 158.811L230.354 159.096C233.792 168.647 228.838 179.176 219.287 182.614C209.832 186.018 199.418 181.196 195.875 171.833L195.769 171.548L189.591 154.388L148.207 169.287C132.653 174.887 132.176 131.144 118.265 124.722C104.085 118.176 76.5673 148.746 70.8589 132.89L55.9593 91.5054L38.7996 97.6832C29.2493 101.122 18.7198 96.1668 15.2815 86.6164C11.8432 77.0661 16.7979 66.5367 26.3483 63.0983Z" stroke="url(#paint8_linear_1816_14136)"/>
<path fill-rule="evenodd" clip-rule="evenodd" d="M19.6326 75.6655C28.6767 71.0573 39.744 74.6533 44.3522 83.6974L52.6323 99.9477L91.823 79.9791C105.67 72.9236 106.78 114.947 120.697 118.672C136.674 122.949 165.022 90.4972 173.123 106.395L193.091 145.586L209.342 137.306C218.295 132.744 229.232 136.223 233.921 145.068L234.062 145.338C238.67 154.382 235.074 165.449 226.03 170.057C217.076 174.62 206.139 171.141 201.45 162.295L201.31 162.025L193.03 145.775L153.839 165.744C139.11 173.249 133.154 129.911 118.549 125.283C103.66 120.566 80.19 154.343 72.5394 139.328L52.5704 100.137L36.3203 108.417C27.2762 113.025 16.2088 109.429 11.6006 100.385C6.99244 91.3411 10.5884 80.2737 19.6326 75.6655Z" stroke="url(#paint9_linear_1816_14136)"/>
<path fill-rule="evenodd" clip-rule="evenodd" d="M14.5438 88.9753C22.9391 83.2699 34.3699 85.4505 40.0753 93.8457L50.3267 108.93L86.7056 84.207C99.5593 75.4717 105.927 117.025 120.201 118.976C136.589 121.217 160.646 85.4679 170.675 100.225L195.398 136.604L210.483 126.353C218.794 120.704 230.08 122.785 235.841 130.973L236.014 131.223C241.72 139.618 239.539 151.049 231.144 156.754C222.833 162.403 211.546 160.322 205.785 152.134L205.612 151.884L195.361 136.8L158.982 161.523C145.309 170.815 133.969 128.565 118.899 125.804C103.536 122.99 84.4847 159.443 75.0125 145.505L50.2891 109.126L35.2049 119.377C26.8097 125.083 15.3788 122.902 9.67345 114.507C3.96806 106.112 6.1486 94.6807 14.5438 88.9753Z" stroke="url(#paint10_linear_1816_14136)"/>
<path fill-rule="evenodd" clip-rule="evenodd" d="M11.1661 102.818C18.7801 96.1057 30.394 96.8364 37.1066 104.45L49.1678 118.131L82.1613 89.0433C93.8187 78.7659 105.344 119.193 119.75 119.34C136.29 119.509 155.677 81.027 167.476 94.4109L196.564 127.405L210.245 115.343C217.782 108.698 229.241 109.347 235.982 116.749L236.185 116.975C242.898 124.589 242.167 136.203 234.553 142.916C227.015 149.561 215.557 148.912 208.815 141.51L208.613 141.284L196.552 127.603L163.558 156.691C151.158 167.623 134.611 127.128 119.314 126.278C103.72 125.411 89.3874 163.964 78.2429 151.323L49.155 118.33L35.4746 130.391C27.8606 137.103 16.2467 136.373 9.53407 128.759C2.82146 121.145 3.55215 109.531 11.1661 102.818Z" stroke="url(#paint11_linear_1816_14136)"/>
<path fill-rule="evenodd" clip-rule="evenodd" d="M9.54854 116.975C16.2611 109.361 27.8751 108.631 35.4891 115.343L49.1698 127.404L78.2574 94.4108C88.5348 82.7533 105.037 121.417 119.347 119.758C135.778 117.853 150.189 77.2438 163.572 89.0432L196.566 118.131L208.627 104.45C215.273 96.9125 226.722 96.1209 234.338 102.619L234.568 102.818C242.182 109.531 242.912 121.145 236.2 128.759C229.554 136.297 218.105 137.088 210.489 130.59L210.259 130.391L196.579 118.33L167.491 151.323C156.558 163.724 135.067 125.621 119.784 126.695C104.204 127.79 94.8167 167.835 82.1757 156.691L49.182 127.603L37.1211 141.284C30.4085 148.898 18.7945 149.628 11.1806 142.916C3.56662 136.203 2.83594 124.589 9.54854 116.975Z" stroke="url(#paint12_linear_1816_14136)"/>
<path fill-rule="evenodd" clip-rule="evenodd" d="M9.71792 131.224C15.4233 122.828 26.8541 120.648 35.2494 126.353L50.3339 136.604L75.0569 100.226C83.7923 87.3719 105.01 123.663 119 120.223C135.061 116.273 144.269 74.1785 159.026 84.2075L195.405 108.931L205.657 93.8462C211.305 85.5349 222.565 83.3147 230.936 88.807L231.188 88.9758C239.583 94.6812 241.764 106.112 236.059 114.507C230.41 122.819 219.15 125.039 210.78 119.546L210.527 119.378L195.443 109.126L170.72 145.505C161.428 159.178 135.33 124.07 120.302 127.051C104.983 130.09 100.688 170.996 86.7501 161.523L50.3709 136.8L40.1197 151.885C34.4143 160.28 22.9835 162.46 14.5883 156.755C6.19307 151.05 4.01253 139.619 9.71792 131.224Z" stroke="url(#paint13_linear_1816_14136)"/>
<path fill-rule="evenodd" clip-rule="evenodd" d="M11.6714 145.338C16.2796 136.294 27.347 132.698 36.3911 137.306L52.6415 145.586L72.6101 106.395C79.6656 92.5483 105.264 125.894 118.713 120.727C134.153 114.796 138.012 71.8792 153.91 79.9795L193.101 99.9485L201.381 83.6979C205.943 74.7442 216.836 71.1302 225.828 75.5302L226.1 75.666C235.144 80.2742 238.74 91.3415 234.132 100.386C229.57 109.339 218.677 112.953 209.685 108.553L209.413 108.418L193.162 100.137L173.194 139.328C165.688 154.058 135.397 122.497 120.861 127.338C106.043 132.273 106.909 173.395 91.8937 165.744L52.7028 145.776L44.423 162.026C39.8148 171.07 28.7474 174.666 19.7033 170.058C10.6592 165.45 7.06317 154.382 11.6714 145.338Z" stroke="url(#paint14_linear_1816_14136)"/>
<path fill-rule="evenodd" clip-rule="evenodd" d="M15.3793 159.096C18.8177 149.546 29.3471 144.591 38.8974 148.03L56.0574 154.207L70.9567 112.823C76.221 98.2009 105.797 128.075 118.492 121.264C133.067 113.444 131.517 70.382 148.305 76.4259L189.689 91.3255L195.867 74.1653C199.271 64.7104 209.625 59.7597 219.098 62.9979L219.385 63.0985C228.936 66.5368 233.89 77.0663 230.452 86.6166C227.048 96.0714 216.694 101.022 207.221 97.784L206.934 97.6834L189.774 91.5053L174.875 132.89C169.275 148.444 135.266 120.929 121.452 127.554C107.369 134.307 113.382 174.996 97.5266 169.287L56.1421 154.388L49.9642 171.548C46.5259 181.098 35.9964 186.053 26.4461 182.614C16.8957 179.176 11.941 168.647 15.3793 159.096Z" stroke="url(#paint15_linear_1816_14136)"/>
<path fill-rule="evenodd" clip-rule="evenodd" d="M20.7823 172.281C22.9965 162.375 32.8219 156.14 42.7279 158.354L60.5268 162.332L70.1218 119.407C73.512 104.24 106.599 130.172 118.34 121.823C131.82 112.239 124.885 69.7103 142.298 73.6025L185.224 83.1978L189.202 65.3985C191.394 55.5916 201.046 49.3823 210.851 51.4075L211.148 51.4714C221.054 53.6857 227.289 63.5111 225.075 73.4171C222.883 83.224 213.231 89.4333 203.426 87.4081L203.129 87.3442L185.33 83.3655L175.735 126.291C172.129 142.424 134.94 119.389 122.065 127.693C108.94 136.158 120.005 175.772 103.559 172.096L60.6335 162.501L56.655 180.3C54.4407 190.206 44.6154 196.441 34.7094 194.227C24.8034 192.012 18.568 182.187 20.7823 172.281Z" stroke="url(#paint16_linear_1816_14136)"/>
<path fill-rule="evenodd" clip-rule="evenodd" d="M27.7953 184.685C28.7505 174.58 37.717 167.162 47.8223 168.117L65.9796 169.834L70.1189 126.044C71.5814 110.572 107.658 132.153 118.26 122.398C130.432 111.2 118.222 69.8758 135.985 71.5549L179.775 75.6945L181.491 57.537C182.437 47.5327 191.234 40.1626 201.215 40.943L201.518 40.9692C211.624 41.9244 219.041 50.8908 218.086 60.9962C217.14 71.0006 208.343 78.3706 198.362 77.5902L198.059 77.564L179.902 75.8475L175.762 119.637C174.207 136.095 134.424 117.902 122.691 127.754C110.73 137.798 126.673 175.713 109.896 174.127L66.1065 169.988L64.3901 188.145C63.4349 198.25 54.4685 205.668 44.3631 204.712C34.2577 203.757 26.8401 194.791 27.7953 184.685Z" stroke="url(#paint17_linear_1816_14136)"/>
<path fill-rule="evenodd" clip-rule="evenodd" d="M36.3072 196.112C35.9884 185.967 43.9544 177.484 54.0998 177.165L72.329 176.592L70.9474 132.629C70.4593 117.096 108.956 133.984 118.252 122.978C128.925 110.342 111.631 70.8746 129.465 70.3142L173.428 68.9329L172.855 50.7034C172.54 40.6595 180.344 32.2449 190.344 31.7682L190.648 31.7562C200.793 31.4374 209.276 39.4034 209.595 49.5489C209.911 59.5928 202.106 68.0074 192.106 68.4841L191.802 68.4961L173.573 69.0688L174.955 113.032C175.474 129.555 133.725 116.492 123.319 127.737C112.712 139.2 133.281 174.818 116.437 175.347L72.4742 176.729L73.0471 194.958C73.3659 205.103 65.3999 213.586 55.2544 213.905C45.109 214.224 36.626 206.258 36.3072 196.112Z" stroke="url(#paint18_linear_1816_14136)"/>
<path fill-rule="evenodd" clip-rule="evenodd" d="M46.1851 206.383C44.5972 196.357 51.4372 186.943 61.4627 185.355L79.4763 182.502L72.5956 139.059C70.1644 123.709 110.474 135.64 118.317 123.555C127.322 109.681 105.219 72.6921 122.842 69.9009L166.285 63.0205L163.432 45.0066C161.86 35.0813 168.548 25.7549 178.41 24.0287L178.709 23.9787C188.735 22.3909 198.149 29.2309 199.737 39.2563C201.309 49.1815 194.621 58.5079 184.759 60.2342L184.46 60.2842L166.446 63.1371L173.327 106.581C175.913 122.908 132.856 115.18 123.941 127.641C114.854 140.343 139.725 173.102 123.081 175.738L79.6375 182.619L82.4905 200.633C84.0784 210.658 77.2384 220.073 67.2129 221.66C57.1874 223.248 47.7729 216.408 46.1851 206.383Z" stroke="url(#paint19_linear_1816_14136)"/>
<path fill-rule="evenodd" clip-rule="evenodd" d="M57.2709 215.334C54.439 205.587 60.0451 195.389 69.7925 192.557L87.3065 187.469L75.0352 145.231C70.6994 130.307 112.186 137.091 118.453 124.119C125.648 109.226 99.0832 75.2988 116.217 70.3209L158.456 58.0498L153.367 40.5356C150.564 30.8856 156.03 20.7945 165.598 17.8459L165.889 17.7587C175.636 14.9269 185.834 20.533 188.666 30.2804C191.469 39.9303 186.003 50.0214 176.435 52.97L176.144 53.0572L158.63 58.1454L170.901 100.384C175.514 116.259 131.827 113.988 124.545 127.468C117.121 141.209 145.902 170.592 129.719 175.294L87.4811 187.565L92.5693 205.079C95.4012 214.827 89.7951 225.024 80.0477 227.856C70.3003 230.688 60.1028 225.082 57.2709 215.334Z" stroke="url(#paint20_linear_1816_14136)"/>
<path fill-rule="evenodd" clip-rule="evenodd" d="M69.3915 222.826C65.3602 213.51 69.6441 202.69 78.9597 198.659L95.6978 191.416L78.2294 151.049C72.0573 136.786 114.067 138.317 118.659 124.662C123.931 108.984 93.323 78.654 109.698 71.5679L150.065 54.0996L142.822 37.3612C138.831 28.1388 142.99 17.4421 152.112 13.3176L152.39 13.1946C161.706 9.16341 172.526 13.4473 176.557 22.7629C180.548 31.9853 176.389 42.682 167.267 46.8065L166.989 46.9294L150.25 54.1726L167.719 94.54C174.284 109.712 130.658 112.934 125.122 127.22C119.48 141.784 151.716 167.328 136.25 174.021L95.8831 191.489L103.126 208.227C107.157 217.543 102.874 228.363 93.558 232.394C84.2424 236.425 73.4227 232.141 69.3915 222.826Z" stroke="url(#paint21_linear_1816_14136)"/>
<path fill-rule="evenodd" clip-rule="evenodd" d="M82.3564 228.738C77.1894 220.002 80.0834 208.73 88.8203 203.563L104.519 194.279L82.1285 156.42C74.2175 143.043 116.088 139.297 118.932 125.173C122.198 108.959 88.0297 82.7042 103.387 73.6216L141.247 51.2318L131.963 35.5332C126.848 26.8836 129.633 15.7501 138.167 10.5147L138.427 10.3579C147.164 5.19094 158.435 8.08492 163.602 16.8218C168.718 25.4714 165.932 36.6049 157.399 41.8402L157.138 41.9971L141.44 51.2809L163.83 89.1406C172.245 103.37 129.367 112.035 125.665 126.902C121.892 142.058 157.076 163.36 142.571 171.939L104.712 194.329L113.996 210.027C119.162 218.764 116.269 230.035 107.532 235.202C98.7947 240.369 87.5234 237.475 82.3564 228.738Z" stroke="url(#paint22_linear_1816_14136)"/>
<path fill-rule="evenodd" clip-rule="evenodd" d="M95.959 232.98C89.7378 224.96 91.1963 213.414 99.2167 207.193L113.628 196.015L86.6691 161.26C77.1439 148.98 118.215 140.016 119.267 125.647C120.474 109.151 83.2847 87.3862 97.383 76.4505L132.138 49.4921L120.96 35.0809C114.8 27.1407 116.168 15.7458 123.979 9.48222L124.217 9.29401C132.238 3.07273 143.783 4.53122 150.004 12.5516C156.163 20.4919 154.795 31.8867 146.985 38.1503L146.746 38.3385L132.335 49.5167L159.294 84.2716C169.426 97.334 127.972 111.305 126.163 126.519C124.319 142.028 161.896 158.753 148.58 169.081L113.825 196.04L125.004 210.451C131.225 218.471 129.766 230.016 121.746 236.238C113.725 242.459 102.18 241 95.959 232.98Z" stroke="url(#paint23_linear_1816_14136)"/>
<path fill-rule="evenodd" clip-rule="evenodd" d="M109.987 235.484C102.809 228.306 102.809 216.669 109.987 209.492L122.883 196.595L91.7813 165.493C80.7921 154.504 120.416 140.463 119.658 126.076C118.789 109.559 79.1647 92.6263 91.7813 80.0098L122.884 48.908L109.987 36.0115C102.881 28.9058 102.81 17.4294 109.774 10.2363L109.987 10.0197C117.164 2.84225 128.801 2.84225 135.979 10.0197C143.084 17.1254 143.156 28.6018 136.192 35.7949L135.979 36.0115L123.082 48.9077L154.184 80.0098C165.874 91.6993 126.497 110.756 126.61 126.076C126.724 141.694 166.101 153.577 154.184 165.493L123.083 196.596L135.979 209.492C143.156 216.669 143.156 228.306 135.979 235.484C128.801 242.661 117.164 242.661 109.987 235.484Z" stroke="url(#paint24_linear_1816_14136)"/>
<path fill-rule="evenodd" clip-rule="evenodd" d="M124.217 236.209C116.197 229.988 114.738 218.442 120.96 210.422L132.138 196.011L97.3832 169.052C85.1034 159.527 122.655 140.63 120.1 126.452C117.167 110.174 75.7334 98.341 86.6692 84.2427L113.628 49.488L99.2168 38.3095C91.2766 32.1505 89.7678 20.7735 95.7749 12.7643L95.9592 12.5227C102.18 4.50226 113.726 3.04376 121.746 9.26504C129.686 15.4241 131.195 26.8011 125.188 34.8102L125.004 35.0519L113.825 49.4628L148.58 76.4215C161.643 86.5537 124.965 110.395 126.997 125.581C129.068 141.061 169.623 147.915 159.294 161.231L132.336 195.986L146.747 207.164C154.767 213.386 156.226 224.931 150.004 232.951C143.783 240.972 132.238 242.43 124.217 236.209Z" stroke="url(#paint25_linear_1816_14136)"/>
<path fill-rule="evenodd" clip-rule="evenodd" d="M138.426 235.145C129.69 229.978 126.796 218.707 131.963 209.97L141.246 194.271L103.387 171.881C90.0102 163.97 124.897 140.516 120.585 126.77C115.635 110.988 73.0455 104.441 82.128 89.0834L104.518 51.2239L88.8198 41.9398C80.1703 36.8245 77.2474 25.7263 82.2033 17.0274L82.3559 16.7646C87.5229 8.02767 98.7942 5.13369 107.531 10.3007C116.181 15.416 119.104 26.5142 114.148 35.2131L113.995 35.4759L104.711 51.1742L142.571 73.5644C156.8 81.9795 123.4 110.23 127.318 125.041C131.313 140.14 172.408 141.857 163.83 156.362L141.44 194.222L157.138 203.506C165.875 208.673 168.769 219.944 163.602 228.681C158.435 237.418 147.163 240.312 138.426 235.145Z" stroke="url(#paint26_linear_1816_14136)"/>
<path fill-rule="evenodd" clip-rule="evenodd" d="M152.39 232.308C143.074 228.277 138.791 217.457 142.822 208.142L150.065 191.403L109.698 173.935C95.435 167.763 127.107 140.121 121.107 127.023C114.218 111.986 71.143 110.829 78.2291 94.4543L95.6979 54.0871L78.9595 46.8437C69.737 42.8528 65.4462 32.2085 69.2728 22.9571L69.3912 22.6772C73.4225 13.3616 84.2422 9.07771 93.5578 13.1089C102.78 17.0999 107.071 27.7442 103.244 36.9956L103.126 37.2755L95.8827 54.0136L136.25 71.4822C151.422 78.0476 121.826 110.261 127.57 124.465C133.426 138.943 174.411 135.497 167.719 150.963L150.251 191.33L166.988 198.573C176.304 202.605 180.588 213.424 176.557 222.74C172.525 232.056 161.706 236.339 152.39 232.308Z" stroke="url(#paint27_linear_1816_14136)"/>
<path fill-rule="evenodd" clip-rule="evenodd" d="M165.889 227.744C156.141 224.912 150.535 214.715 153.367 204.967L158.455 187.453L116.217 175.182C101.293 170.846 129.251 139.453 121.656 127.21C112.937 113.155 70.0569 117.406 75.0348 100.272L87.3065 58.0336L69.7922 52.9452C60.1423 50.1417 54.5512 40.119 57.1881 30.461L57.2706 30.1684C60.1024 20.421 70.3 14.8149 80.0474 17.6468C89.6973 20.4503 95.2884 30.473 92.6514 40.131L92.569 40.4236L87.4806 57.9375L129.719 70.209C145.594 74.8211 120.269 110.49 127.748 123.861C135.372 137.492 175.603 128.936 170.901 145.119L158.63 187.357L176.144 192.446C185.891 195.277 191.497 205.475 188.665 215.222C185.834 224.97 175.636 230.576 165.889 227.744Z" stroke="url(#paint28_linear_1816_14136)"/>
<path fill-rule="evenodd" clip-rule="evenodd" d="M178.709 221.524C168.684 219.936 161.844 210.521 163.432 200.496L166.285 182.482L122.841 175.602C107.492 173.17 131.295 138.521 122.225 127.327C111.813 114.475 69.8041 124.067 72.5953 106.444L79.4763 63.0006L61.4624 60.1475C51.5372 58.5755 44.734 49.3326 46.1397 39.4202L46.1848 39.1197C47.7727 29.0942 57.1871 22.2542 67.2126 23.8421C77.1378 25.4141 83.941 34.6569 82.5353 44.5693L82.4902 44.8699L79.637 62.8835L123.08 69.7643C139.408 72.3503 118.753 110.912 127.849 123.241C137.122 135.809 175.963 122.277 173.326 138.922L166.446 182.365L184.459 185.218C194.485 186.806 201.325 196.221 199.737 206.246C198.149 216.272 188.735 223.112 178.709 221.524Z" stroke="url(#paint29_linear_1816_14136)"/>
<path fill-rule="evenodd" clip-rule="evenodd" d="M190.648 213.747C180.503 213.428 172.537 204.945 172.856 194.799L173.428 176.57L129.465 175.189C113.932 174.7 133.204 137.34 122.804 127.371C110.863 115.926 70.3872 130.707 70.9477 112.874L72.3296 68.9105L54.1001 68.3376C44.0561 68.022 36.1482 59.7047 36.3004 49.6943L36.3075 49.3904C36.6263 39.245 45.1093 31.2789 55.2547 31.5978C65.2987 31.9134 73.2066 40.2307 73.0544 50.2411L73.0473 50.545L72.4743 68.7741L116.438 70.1558C132.961 70.675 117.302 111.522 127.871 122.613C138.646 133.919 175.485 115.627 174.955 132.471L173.574 176.434L191.803 177.007C201.948 177.326 209.914 185.808 209.595 195.954C209.277 206.099 200.794 214.065 190.648 213.747Z" stroke="url(#paint30_linear_1816_14136)"/>
<path fill-rule="evenodd" clip-rule="evenodd" d="M201.518 204.534C191.413 205.489 182.446 198.071 181.491 187.966L179.775 169.809L135.985 173.948C120.513 175.41 134.951 135.93 123.383 127.343C110.102 117.484 71.7979 137.222 70.1188 119.459L65.9797 75.669L47.8222 77.3854C37.8179 78.3311 28.9299 71.0705 27.8262 61.1199L27.7952 60.8176C26.8399 50.7122 34.2576 41.7458 44.363 40.7905C54.3673 39.8448 63.2553 47.1054 64.359 57.056L64.39 57.3583L66.1063 75.5155L109.896 71.3762C126.354 69.8205 115.938 112.308 127.814 121.987C139.921 131.854 174.176 109.088 175.762 125.866L179.902 169.655L198.059 167.939C208.164 166.984 217.131 174.401 218.086 184.507C219.041 194.612 211.624 203.578 201.518 204.534Z" stroke="url(#paint31_linear_1816_14136)"/>
<path fill-rule="evenodd" clip-rule="evenodd" d="M211.147 194.031C201.241 196.245 191.416 190.01 189.202 180.104L185.223 162.305L142.298 171.9C127.131 175.29 136.507 134.311 123.954 127.242C109.542 119.126 74.0137 143.508 70.1215 126.096L60.5268 83.1701L42.7275 87.1487C32.9206 89.3408 23.1927 83.2515 20.8506 73.5177L20.7819 73.2216C18.5677 63.3156 24.8031 53.4902 34.709 51.276C44.516 49.0839 54.2439 55.1733 56.5859 64.907L56.6547 65.2031L60.6331 83.002L103.559 73.407C119.692 69.8008 114.683 113.258 127.679 121.373C140.926 129.645 172.059 102.765 175.735 119.211L185.33 162.137L203.129 158.158C213.035 155.944 222.86 162.18 225.075 172.086C227.289 181.992 221.053 191.817 211.147 194.031Z" stroke="url(#paint32_linear_1816_14136)"/>
<path fill-rule="evenodd" clip-rule="evenodd" d="M219.385 182.405C209.835 185.843 199.306 180.888 195.867 171.338L189.689 154.178L148.305 169.077C133.683 174.342 137.849 132.51 124.508 127.07C109.193 120.825 77.0008 149.468 70.9568 132.68L56.0578 91.2954L38.8976 97.4735C29.4427 100.877 19.0283 96.0553 15.4847 86.6919L15.3795 86.4067C11.9411 76.8564 16.8959 66.327 26.4463 62.8886C35.9011 59.4847 46.3155 64.3068 49.8591 73.6703L49.9644 73.9554L56.1422 91.1154L97.5268 76.216C113.081 70.6162 113.558 114.359 127.468 120.781C141.648 127.327 169.166 96.7574 174.875 112.613L189.774 153.998L206.934 147.82C216.484 144.381 227.014 149.336 230.452 158.886C233.89 168.437 228.936 178.966 219.385 182.405Z" stroke="url(#paint33_linear_1816_14136)"/>
<path fill-rule="evenodd" clip-rule="evenodd" d="M226.101 169.837C217.057 174.445 205.989 170.849 201.381 161.805L193.101 145.555L153.91 165.523C140.063 172.579 138.954 130.555 125.037 126.83C109.059 122.553 80.7109 155.005 72.6106 139.107L52.6421 99.9165L36.3916 108.197C27.4379 112.759 16.5012 109.28 11.812 100.434L11.6719 100.165C7.06368 91.1206 10.6597 80.0532 19.7038 75.445C28.6575 70.8829 39.5941 74.3618 44.2833 83.2073L44.4235 83.477L52.7033 99.7273L91.8942 79.7586C106.624 72.2535 112.579 115.592 127.185 120.219C142.074 124.936 165.543 91.1592 173.194 106.175L193.163 145.365L209.413 137.085C218.457 132.477 229.525 136.073 234.133 145.117C238.741 154.161 235.145 165.229 226.101 169.837Z" stroke="url(#paint34_linear_1816_14136)"/>
<path fill-rule="evenodd" clip-rule="evenodd" d="M231.188 156.527C222.793 162.233 211.362 160.052 205.657 151.657L195.405 136.572L159.027 161.295C146.173 170.031 139.805 128.478 125.531 126.526C109.143 124.285 85.086 160.035 75.057 145.277L50.3341 108.898L35.2494 119.15C26.9382 124.798 15.6517 122.717 9.89087 114.529L9.71801 114.279C4.01262 105.884 6.19316 94.4534 14.5884 88.748C22.8997 83.0996 34.1861 85.1803 39.947 93.3684L40.1198 93.6184L50.3711 108.703L86.7502 83.9797C100.423 74.6876 111.763 116.937 126.834 119.698C142.196 122.512 161.247 86.0597 170.72 99.9977L195.443 136.376L210.527 126.125C218.923 120.42 230.353 122.6 236.059 130.996C241.764 139.391 239.584 150.822 231.188 156.527Z" stroke="url(#paint35_linear_1816_14136)"/>
<path fill-rule="evenodd" clip-rule="evenodd" d="M234.568 142.685C226.954 149.397 215.34 148.667 208.627 141.053L196.566 127.372L163.573 156.46C151.915 166.737 140.39 126.31 125.984 126.163C109.444 125.994 90.0573 164.476 78.2579 151.092L49.1704 118.098L35.4895 130.16C27.9517 136.805 16.4935 136.155 9.75182 128.754L9.549 128.528C2.83639 120.914 3.56708 109.3 11.181 102.587C18.7189 95.9416 30.1771 96.5913 36.9187 103.993L37.1216 104.219L49.1826 117.9L82.1762 88.8121C94.5766 77.8797 111.123 118.375 126.42 119.225C142.014 120.091 156.347 81.5388 167.491 94.1797L196.579 127.173L210.26 115.112C217.873 108.399 229.487 109.13 236.2 116.744C242.913 124.358 242.182 135.972 234.568 142.685Z" stroke="url(#paint36_linear_1816_14136)"/>
<path fill-rule="evenodd" clip-rule="evenodd" d="M236.184 128.528C229.472 136.142 217.858 136.872 210.244 130.16L196.563 118.099L167.475 151.092C157.198 162.75 140.696 124.086 126.386 125.745C109.955 127.65 95.5443 168.259 82.1605 156.46L49.1672 127.372L37.1059 141.053C30.4604 148.59 19.0111 149.382 11.3949 142.884L11.1653 142.685C3.55139 135.972 2.8207 124.358 9.5333 116.744C16.1788 109.206 27.6281 108.415 35.2442 114.913L35.4738 115.112L49.1544 127.173L78.2422 94.1797C89.1746 81.7793 110.666 119.882 125.949 118.808C141.529 117.713 150.916 77.6677 163.557 88.8121L196.551 117.9L208.612 104.219C215.324 96.6052 226.938 95.8745 234.552 102.587C242.166 109.3 242.897 120.914 236.184 128.528Z" stroke="url(#paint37_linear_1816_14136)"/>
<path fill-rule="evenodd" clip-rule="evenodd" d="M236.016 114.279C230.31 122.675 218.88 124.855 210.484 119.15L195.4 108.898L170.677 145.277C161.941 158.131 140.724 121.84 126.734 125.28C110.672 129.23 101.464 171.324 86.7072 161.295L50.3283 136.572L40.0768 151.657C34.4285 159.968 23.1686 162.188 14.7981 156.696L14.5454 156.527C6.15016 150.822 3.96961 139.391 9.67501 130.996C15.3233 122.684 26.5832 120.464 34.9537 125.956L35.2064 126.125L50.2908 136.377L75.014 99.9976C84.306 86.3249 110.403 121.433 125.431 118.452C140.751 115.413 145.046 74.5073 158.984 83.9796L195.363 108.702L205.614 93.6183C211.319 85.2231 222.75 83.0425 231.145 88.7479C239.541 94.4533 241.721 105.884 236.016 114.279Z" stroke="url(#paint38_linear_1816_14136)"/>
<path fill-rule="evenodd" clip-rule="evenodd" d="M234.061 100.165C229.453 109.209 218.386 112.805 209.342 108.197L193.091 99.9169L173.123 139.108C166.067 152.955 140.469 119.609 127.02 124.776C111.58 130.707 107.721 173.624 91.8227 165.523L52.6321 145.555L44.352 161.805C39.7899 170.759 28.8971 174.373 19.9042 169.973L19.6323 169.837C10.5882 165.229 6.99221 154.161 11.6004 145.117C16.1625 136.164 27.0553 132.55 36.0482 136.95L36.3201 137.085L52.5704 145.365L72.5391 106.175C80.0442 91.445 110.336 123.006 124.872 118.164C139.69 113.229 138.824 72.108 153.839 79.7587L193.03 99.7271L201.31 83.4771C205.918 74.433 216.985 70.8369 226.029 75.4451C235.073 80.0533 238.669 91.1207 234.061 100.165Z" stroke="url(#paint39_linear_1816_14136)"/>
<path fill-rule="evenodd" clip-rule="evenodd" d="M230.353 86.4066C226.915 95.9569 216.385 100.912 206.835 97.4733L189.675 91.2955L174.776 132.68C169.511 147.302 139.935 117.428 127.24 124.239C112.665 132.059 114.215 175.121 97.4278 169.077L56.0434 154.177L49.8653 171.338C46.4614 180.792 36.1074 185.743 26.634 182.505L26.3472 182.404C16.7969 178.966 11.8421 168.437 15.2804 158.886C18.6844 149.431 29.0383 144.481 38.5117 147.719L38.7985 147.82L55.9584 153.998L70.8578 112.613C76.4576 97.059 110.466 124.574 124.281 117.949C138.363 111.196 132.35 70.5074 148.206 76.2159L189.59 91.1149L195.768 73.9552C199.207 64.4049 209.736 59.4501 219.286 62.8885C228.837 66.3268 233.791 76.8562 230.353 86.4066Z" stroke="url(#paint40_linear_1816_14136)"/>
<path fill-rule="evenodd" clip-rule="evenodd" d="M224.951 73.2214C222.736 83.1274 212.911 89.3628 203.005 87.1485L185.206 83.1701L175.611 126.096C172.221 141.262 139.134 115.331 127.393 123.679C113.913 133.264 120.848 175.792 103.435 171.9L60.5094 162.305L56.5308 180.104C54.3387 189.911 44.6869 196.12 34.8823 194.095L34.5852 194.031C24.6792 191.817 18.4438 181.991 20.658 172.085C22.8501 162.278 32.5019 156.069 42.3065 158.094L42.6037 158.158L60.4025 162.137L69.9976 119.211C73.6038 103.078 110.793 126.114 123.668 117.81C136.793 109.345 125.728 69.7307 142.174 73.4068L185.099 83.0015L189.078 65.2029C191.292 55.2969 201.118 49.0615 211.024 51.2758C220.93 53.49 227.165 63.3154 224.951 73.2214Z" stroke="url(#paint41_linear_1816_14136)"/>
<path fill-rule="evenodd" clip-rule="evenodd" d="M217.939 60.8172C216.983 70.9225 208.017 78.3402 197.912 77.385L179.754 75.6687L175.615 119.458C174.152 134.93 138.076 113.35 127.474 123.104C115.302 134.303 127.512 175.627 109.749 173.948L65.959 169.808L64.2427 187.965C63.297 197.97 54.4995 205.34 44.5184 204.559L44.2156 204.533C34.1102 203.578 26.6926 194.612 27.6478 184.506C28.5935 174.502 37.3909 167.132 47.3721 167.912L47.6749 167.938L65.8321 169.655L69.9714 125.865C71.5272 109.407 111.31 127.6 123.043 117.748C135.004 107.705 119.06 69.7899 135.838 71.3758L179.627 75.5148L181.344 57.3579C182.299 47.2525 191.265 39.8349 201.371 40.7901C211.476 41.7454 218.894 50.7118 217.939 60.8172Z" stroke="url(#paint42_linear_1816_14136)"/>
<path fill-rule="evenodd" clip-rule="evenodd" d="M209.425 49.3901C209.744 59.5356 201.778 68.0185 191.633 68.3374L173.404 68.9104L174.785 112.873C175.273 128.407 136.777 111.518 127.481 122.524C116.808 135.16 134.101 174.628 116.268 175.188L72.3045 176.57L72.8774 194.799C73.1931 204.843 65.3887 213.258 55.3885 213.734L55.0848 213.746C44.9394 214.065 36.4564 206.099 36.1376 195.954C35.8219 185.91 43.6263 177.495 53.6265 177.018L53.9302 177.006L72.1593 176.434L70.7778 132.47C70.2585 115.947 112.008 129.011 122.414 117.766C133.021 106.303 112.452 70.6848 129.295 70.1555L173.258 68.7736L172.686 50.5447C172.367 40.3993 180.333 31.9164 190.478 31.5975C200.624 31.2787 209.107 39.2447 209.425 49.3901Z" stroke="url(#paint43_linear_1816_14136)"/>
<path fill-rule="evenodd" clip-rule="evenodd" d="M199.549 39.1196C201.137 49.145 194.297 58.5595 184.272 60.1474L166.258 63.0006L173.139 106.444C175.57 121.793 135.26 109.863 127.417 121.947C118.412 135.821 140.516 172.81 122.893 175.602L79.4494 182.482L82.3025 200.496C83.8745 210.421 77.1863 219.747 67.3247 221.474L67.0249 221.524C56.9994 223.112 47.5849 216.272 45.9971 206.246C44.4251 196.321 51.1132 186.995 60.9749 185.268L61.2747 185.218L79.2883 182.365L72.4076 138.922C69.8215 122.594 112.879 130.322 121.793 117.861C130.88 105.159 106.009 72.4004 122.654 69.7642L166.097 62.8831L163.244 44.8698C161.656 34.8443 168.496 25.4298 178.521 23.842C188.547 22.2541 197.961 29.0941 199.549 39.1196Z" stroke="url(#paint44_linear_1816_14136)"/>
<path fill-rule="evenodd" clip-rule="evenodd" d="M188.463 30.1687C191.295 39.9161 185.689 50.1136 175.941 52.9455L158.427 58.0339L170.699 100.272C175.035 115.196 133.548 108.412 127.281 121.384C120.085 136.277 146.651 170.204 129.517 175.182L87.2782 187.453L92.3666 204.967C95.1702 214.617 89.7037 224.708 80.1362 227.657L79.845 227.744C70.0976 230.576 59.9001 224.97 57.0682 215.223C54.2646 205.573 59.7312 195.482 69.2987 192.533L69.5898 192.446L87.1038 187.358L74.8325 145.119C70.2203 129.244 113.907 131.515 121.189 118.035C128.613 104.294 99.8316 74.9108 116.015 70.2092L158.253 57.9375L153.165 40.4238C150.333 30.6764 155.939 20.4789 165.686 17.647C175.434 14.8151 185.631 20.4213 188.463 30.1687Z" stroke="url(#paint45_linear_1816_14136)"/>
<path fill-rule="evenodd" clip-rule="evenodd" d="M176.341 22.6772C180.372 31.9928 176.088 42.8126 166.773 46.8438L150.035 54.0872L167.503 94.4543C173.675 108.717 131.665 107.186 127.073 120.841C121.801 136.519 152.409 166.849 136.034 173.935L95.667 191.403L102.91 208.142C106.901 217.364 102.743 228.061 93.6202 232.185L93.3422 232.308C84.0266 236.339 73.2069 232.056 69.1756 222.74C65.1847 213.518 69.3434 202.821 78.4659 198.696L78.7439 198.573L95.482 191.33L78.0135 150.963C71.4481 135.791 115.075 132.568 120.61 118.282C126.253 103.719 94.0161 78.175 109.482 71.4822L149.849 54.0135L142.606 37.2756C138.575 27.96 142.859 17.1402 152.174 13.109C161.49 9.07777 172.31 13.3616 176.341 22.6772Z" stroke="url(#paint46_linear_1816_14136)"/>
<path fill-rule="evenodd" clip-rule="evenodd" d="M163.378 16.764C168.545 25.5009 165.651 36.7722 156.914 41.9392L141.215 51.2233L163.605 89.0828C171.516 102.46 129.646 106.206 126.801 120.329C123.536 136.544 157.704 162.798 142.346 171.881L104.487 194.271L113.771 209.969C118.886 218.619 116.101 229.752 107.567 234.988L107.307 235.145C98.57 240.312 87.2987 237.418 82.1317 228.681C77.0164 220.031 79.8016 208.898 88.3352 203.662L88.5956 203.505L104.294 194.222L81.9038 156.362C73.4887 142.133 116.367 133.467 120.069 118.6C123.842 103.445 88.6575 82.1422 103.163 73.5638L141.022 51.1734L131.738 35.4753C126.571 26.7384 129.465 15.4671 138.202 10.3001C146.939 5.13307 158.211 8.02706 163.378 16.764Z" stroke="url(#paint47_linear_1816_14136)"/>
<path fill-rule="evenodd" clip-rule="evenodd" d="M149.774 12.5229C155.995 20.5433 154.537 32.0885 146.516 38.3097L132.105 49.4881L159.064 84.2429C168.589 96.5226 127.518 105.487 126.466 119.855C125.259 136.352 162.448 158.117 148.35 169.052L113.595 196.011L124.773 210.422C130.932 218.362 129.565 229.757 121.754 236.021L121.516 236.209C113.495 242.43 101.95 240.972 95.7289 232.951C89.5698 225.011 90.9377 213.616 98.7479 207.353L98.9865 207.164L113.398 195.986L86.4389 161.231C76.3067 148.169 117.761 134.198 119.57 118.984C121.414 103.475 83.8371 86.7504 97.1528 76.4217L131.907 49.4628L120.729 35.0521C114.508 27.0317 115.967 15.4865 123.987 9.26523C132.007 3.04395 143.553 4.50245 149.774 12.5229Z" stroke="url(#paint48_linear_1816_14136)"/>
<path fill-rule="evenodd" clip-rule="evenodd" d="M135.747 10.0193C142.924 17.1968 142.924 28.8337 135.747 36.0111L122.851 48.9076L153.953 80.0094C164.942 90.9986 125.318 105.04 126.076 119.427C126.945 135.944 166.569 152.877 153.953 165.493L122.85 196.595L135.747 209.491C142.853 216.597 142.924 228.074 135.96 235.267L135.747 235.483C128.569 242.661 116.933 242.661 109.755 235.483C102.649 228.378 102.578 216.901 109.542 209.708L109.755 209.491L122.651 196.595L91.5494 165.493C79.86 153.804 119.236 134.747 119.124 119.427C119.01 103.809 79.6332 91.9256 91.5494 80.0094L122.651 48.9073L109.755 36.0111C102.578 28.8337 102.578 17.1968 109.755 10.0193C116.933 2.84187 128.569 2.84187 135.747 10.0193Z" stroke="url(#paint49_linear_1816_14136)"/>
</g>
<defs>
<linearGradient id="paint0_linear_1816_14136" x1="74.8109" y1="10.1424" x2="167.579" y2="8.74001" gradientUnits="userSpaceOnUse">
<stop stop-color="#844EFF"/>
<stop offset="1" stop-color="#88F8FF"/>
</linearGradient>
<linearGradient id="paint1_linear_1816_14136" x1="61.0757" y1="17.0536" x2="152.936" y2="4.03536" gradientUnits="userSpaceOnUse">
<stop stop-color="#844EFF"/>
<stop offset="1" stop-color="#88F8FF"/>
</linearGradient>
<linearGradient id="paint2_linear_1816_14136" x1="48.3155" y1="25.6315" x2="137.82" y2="1.20268" gradientUnits="userSpaceOnUse">
<stop stop-color="#844EFF"/>
<stop offset="1" stop-color="#88F8FF"/>
</linearGradient>
<linearGradient id="paint3_linear_1816_14136" x1="36.731" y1="35.7406" x2="122.468" y2="0.286476" gradientUnits="userSpaceOnUse">
<stop stop-color="#844EFF"/>
<stop offset="1" stop-color="#88F8FF"/>
</linearGradient>
<linearGradient id="paint4_linear_1816_14136" x1="26.5054" y1="47.2225" x2="107.123" y2="1.30218" gradientUnits="userSpaceOnUse">
<stop stop-color="#844EFF"/>
<stop offset="1" stop-color="#88F8FF"/>
</linearGradient>
<linearGradient id="paint5_linear_1816_14136" x1="17.7989" y1="59.8954" x2="92.0254" y2="4.23315" gradientUnits="userSpaceOnUse">
<stop stop-color="#844EFF"/>
<stop offset="1" stop-color="#88F8FF"/>
</linearGradient>
<linearGradient id="paint6_linear_1816_14136" x1="10.7495" y1="73.5597" x2="77.4144" y2="9.03331" gradientUnits="userSpaceOnUse">
<stop stop-color="#844EFF"/>
<stop offset="1" stop-color="#88F8FF"/>
</linearGradient>
<linearGradient id="paint7_linear_1816_14136" x1="5.46751" y1="87.9996" x2="63.5194" y2="15.6266" gradientUnits="userSpaceOnUse">
<stop stop-color="#844EFF"/>
<stop offset="1" stop-color="#88F8FF"/>
</linearGradient>
<linearGradient id="paint8_linear_1816_14136" x1="2.03853" y1="102.988" x2="50.562" y2="23.9095" gradientUnits="userSpaceOnUse">
<stop stop-color="#844EFF"/>
<stop offset="1" stop-color="#88F8FF"/>
</linearGradient>
<linearGradient id="paint9_linear_1816_14136" x1="0.513935" y1="118.287" x2="38.7437" y2="33.7509" gradientUnits="userSpaceOnUse">
<stop stop-color="#844EFF"/>
<stop offset="1" stop-color="#88F8FF"/>
</linearGradient>
<linearGradient id="paint10_linear_1816_14136" x1="0.917854" y1="133.657" x2="28.2509" y2="44.996" gradientUnits="userSpaceOnUse">
<stop stop-color="#844EFF"/>
<stop offset="1" stop-color="#88F8FF"/>
</linearGradient>
<linearGradient id="paint11_linear_1816_14136" x1="3.24767" y1="148.855" x2="19.253" y2="57.4678" gradientUnits="userSpaceOnUse">
<stop stop-color="#844EFF"/>
<stop offset="1" stop-color="#88F8FF"/>
</linearGradient>
<linearGradient id="paint12_linear_1816_14136" x1="7.46251" y1="163.642" x2="11.8878" y2="70.9687" gradientUnits="userSpaceOnUse">
<stop stop-color="#844EFF"/>
<stop offset="1" stop-color="#88F8FF"/>
</linearGradient>
<linearGradient id="paint13_linear_1816_14136" x1="13.4972" y1="177.784" x2="6.27257" y2="85.2866" gradientUnits="userSpaceOnUse">
<stop stop-color="#844EFF"/>
<stop offset="1" stop-color="#88F8FF"/>
</linearGradient>
<linearGradient id="paint14_linear_1816_14136" x1="21.2564" y1="191.057" x2="2.4958" y2="100.195" gradientUnits="userSpaceOnUse">
<stop stop-color="#844EFF"/>
<stop offset="1" stop-color="#88F8FF"/>
</linearGradient>
<linearGradient id="paint15_linear_1816_14136" x1="30.6189" y1="203.254" x2="0.618181" y2="115.459" gradientUnits="userSpaceOnUse">
<stop stop-color="#844EFF"/>
<stop offset="1" stop-color="#88F8FF"/>
</linearGradient>
<linearGradient id="paint16_linear_1816_14136" x1="41.436" y1="214.18" x2="0.668366" y2="130.838" gradientUnits="userSpaceOnUse">
<stop stop-color="#844EFF"/>
<stop offset="1" stop-color="#88F8FF"/>
</linearGradient>
<linearGradient id="paint17_linear_1816_14136" x1="53.5375" y1="223.665" x2="2.64584" y2="146.09" gradientUnits="userSpaceOnUse">
<stop stop-color="#844EFF"/>
<stop offset="1" stop-color="#88F8FF"/>
</linearGradient>
<linearGradient id="paint18_linear_1816_14136" x1="66.732" y1="231.559" x2="6.51884" y2="160.974" gradientUnits="userSpaceOnUse">
<stop stop-color="#844EFF"/>
<stop offset="1" stop-color="#88F8FF"/>
</linearGradient>
<linearGradient id="paint19_linear_1816_14136" x1="80.8125" y1="237.737" x2="12.2275" y2="175.255" gradientUnits="userSpaceOnUse">
<stop stop-color="#844EFF"/>
<stop offset="1" stop-color="#88F8FF"/>
</linearGradient>
<linearGradient id="paint20_linear_1816_14136" x1="95.5549" y1="242.101" x2="19.6797" y2="188.708" gradientUnits="userSpaceOnUse">
<stop stop-color="#844EFF"/>
<stop offset="1" stop-color="#88F8FF"/>
</linearGradient>
<linearGradient id="paint21_linear_1816_14136" x1="110.728" y1="244.583" x2="28.7595" y2="201.12" gradientUnits="userSpaceOnUse">
<stop stop-color="#844EFF"/>
<stop offset="1" stop-color="#88F8FF"/>
</linearGradient>
<linearGradient id="paint22_linear_1816_14136" x1="126.094" y1="245.143" x2="39.3244" y2="212.297" gradientUnits="userSpaceOnUse">
<stop stop-color="#844EFF"/>
<stop offset="1" stop-color="#88F8FF"/>
</linearGradient>
<linearGradient id="paint23_linear_1816_14136" x1="141.408" y1="243.774" x2="51.2058" y2="222.061" gradientUnits="userSpaceOnUse">
<stop stop-color="#844EFF"/>
<stop offset="1" stop-color="#88F8FF"/>
</linearGradient>
<linearGradient id="paint24_linear_1816_14136" x1="156.43" y1="240.496" x2="64.2181" y2="230.26" gradientUnits="userSpaceOnUse">
<stop stop-color="#844EFF"/>
<stop offset="1" stop-color="#88F8FF"/>
</linearGradient>
<linearGradient id="paint25_linear_1816_14136" x1="170.923" y1="235.36" x2="78.1547" y2="236.763" gradientUnits="userSpaceOnUse">
<stop stop-color="#844EFF"/>
<stop offset="1" stop-color="#88F8FF"/>
</linearGradient>
<linearGradient id="paint26_linear_1816_14136" x1="184.657" y1="228.45" x2="92.7966" y2="241.468" gradientUnits="userSpaceOnUse">
<stop stop-color="#844EFF"/>
<stop offset="1" stop-color="#88F8FF"/>
</linearGradient>
<linearGradient id="paint27_linear_1816_14136" x1="197.417" y1="219.871" x2="107.912" y2="244.3" gradientUnits="userSpaceOnUse">
<stop stop-color="#844EFF"/>
<stop offset="1" stop-color="#88F8FF"/>
</linearGradient>
<linearGradient id="paint28_linear_1816_14136" x1="209.002" y1="209.762" x2="123.265" y2="245.216" gradientUnits="userSpaceOnUse">
<stop stop-color="#844EFF"/>
<stop offset="1" stop-color="#88F8FF"/>
</linearGradient>
<linearGradient id="paint29_linear_1816_14136" x1="219.229" y1="198.28" x2="138.611" y2="244.2" gradientUnits="userSpaceOnUse">
<stop stop-color="#844EFF"/>
<stop offset="1" stop-color="#88F8FF"/>
</linearGradient>
<linearGradient id="paint30_linear_1816_14136" x1="227.935" y1="185.608" x2="153.708" y2="241.27" gradientUnits="userSpaceOnUse">
<stop stop-color="#844EFF"/>
<stop offset="1" stop-color="#88F8FF"/>
</linearGradient>
<linearGradient id="paint31_linear_1816_14136" x1="234.984" y1="171.943" x2="168.319" y2="236.47" gradientUnits="userSpaceOnUse">
<stop stop-color="#844EFF"/>
<stop offset="1" stop-color="#88F8FF"/>
</linearGradient>
<linearGradient id="paint32_linear_1816_14136" x1="240.265" y1="157.503" x2="182.213" y2="229.876" gradientUnits="userSpaceOnUse">
<stop stop-color="#844EFF"/>
<stop offset="1" stop-color="#88F8FF"/>
</linearGradient>
<linearGradient id="paint33_linear_1816_14136" x1="243.695" y1="142.515" x2="195.172" y2="221.593" gradientUnits="userSpaceOnUse">
<stop stop-color="#844EFF"/>
<stop offset="1" stop-color="#88F8FF"/>
</linearGradient>
<linearGradient id="paint34_linear_1816_14136" x1="245.219" y1="127.215" x2="206.99" y2="211.752" gradientUnits="userSpaceOnUse">
<stop stop-color="#844EFF"/>
<stop offset="1" stop-color="#88F8FF"/>
</linearGradient>
<linearGradient id="paint35_linear_1816_14136" x1="244.814" y1="111.846" x2="217.481" y2="200.506" gradientUnits="userSpaceOnUse">
<stop stop-color="#844EFF"/>
<stop offset="1" stop-color="#88F8FF"/>
</linearGradient>
<linearGradient id="paint36_linear_1816_14136" x1="242.486" y1="96.6476" x2="226.481" y2="188.035" gradientUnits="userSpaceOnUse">
<stop stop-color="#844EFF"/>
<stop offset="1" stop-color="#88F8FF"/>
</linearGradient>
<linearGradient id="paint37_linear_1816_14136" x1="238.27" y1="81.8612" x2="233.845" y2="174.534" gradientUnits="userSpaceOnUse">
<stop stop-color="#844EFF"/>
<stop offset="1" stop-color="#88F8FF"/>
</linearGradient>
<linearGradient id="paint38_linear_1816_14136" x1="232.236" y1="67.7194" x2="239.461" y2="160.216" gradientUnits="userSpaceOnUse">
<stop stop-color="#844EFF"/>
<stop offset="1" stop-color="#88F8FF"/>
</linearGradient>
<linearGradient id="paint39_linear_1816_14136" x1="224.476" y1="54.4457" x2="243.237" y2="145.308" gradientUnits="userSpaceOnUse">
<stop stop-color="#844EFF"/>
<stop offset="1" stop-color="#88F8FF"/>
</linearGradient>
<linearGradient id="paint40_linear_1816_14136" x1="215.114" y1="42.2493" x2="245.114" y2="130.043" gradientUnits="userSpaceOnUse">
<stop stop-color="#844EFF"/>
<stop offset="1" stop-color="#88F8FF"/>
</linearGradient>
<linearGradient id="paint41_linear_1816_14136" x1="204.297" y1="31.3223" x2="245.065" y2="114.664" gradientUnits="userSpaceOnUse">
<stop stop-color="#844EFF"/>
<stop offset="1" stop-color="#88F8FF"/>
</linearGradient>
<linearGradient id="paint42_linear_1816_14136" x1="192.196" y1="21.837" x2="243.088" y2="99.4122" gradientUnits="userSpaceOnUse">
<stop stop-color="#844EFF"/>
<stop offset="1" stop-color="#88F8FF"/>
</linearGradient>
<linearGradient id="paint43_linear_1816_14136" x1="179.001" y1="13.9438" x2="239.214" y2="84.5288" gradientUnits="userSpaceOnUse">
<stop stop-color="#844EFF"/>
<stop offset="1" stop-color="#88F8FF"/>
</linearGradient>
<linearGradient id="paint44_linear_1816_14136" x1="164.922" y1="7.76593" x2="233.507" y2="70.2477" gradientUnits="userSpaceOnUse">
<stop stop-color="#844EFF"/>
<stop offset="1" stop-color="#88F8FF"/>
</linearGradient>
<linearGradient id="paint45_linear_1816_14136" x1="150.179" y1="3.40222" x2="226.054" y2="56.7952" gradientUnits="userSpaceOnUse">
<stop stop-color="#844EFF"/>
<stop offset="1" stop-color="#88F8FF"/>
</linearGradient>
<linearGradient id="paint46_linear_1816_14136" x1="135.004" y1="0.920103" x2="216.973" y2="44.3824" gradientUnits="userSpaceOnUse">
<stop stop-color="#844EFF"/>
<stop offset="1" stop-color="#88F8FF"/>
</linearGradient>
<linearGradient id="paint47_linear_1816_14136" x1="119.64" y1="0.359304" x2="206.409" y2="33.2055" gradientUnits="userSpaceOnUse">
<stop stop-color="#844EFF"/>
<stop offset="1" stop-color="#88F8FF"/>
</linearGradient>
<linearGradient id="paint48_linear_1816_14136" x1="104.325" y1="1.72936" x2="194.527" y2="23.4414" gradientUnits="userSpaceOnUse">
<stop stop-color="#844EFF"/>
<stop offset="1" stop-color="#88F8FF"/>
</linearGradient>
<linearGradient id="paint49_linear_1816_14136" x1="89.3035" y1="5.00719" x2="181.516" y2="15.2427" gradientUnits="userSpaceOnUse">
<stop stop-color="#844EFF"/>
<stop offset="1" stop-color="#88F8FF"/>
</linearGradient>
</defs>
</svg>
