<svg width="23" height="24" viewBox="0 0 23 24" fill="none" xmlns="http://www.w3.org/2000/svg">
<g opacity="0.7" clip-path="url(#clip0_1788_14192)">
<path d="M12.2075 1C12.2075 0.585787 11.8717 0.25 11.4575 0.25C11.0433 0.25 10.7075 0.585787 10.7075 1L12.2075 1ZM11.4575 23L10.904 23.5061C11.0461 23.6615 11.2469 23.75 11.4575 23.75C11.668 23.75 11.8689 23.6615 12.011 23.5061L11.4575 23ZM6.52456 16.4939C6.24504 16.1882 5.77064 16.167 5.46496 16.4465C5.15927 16.726 5.13806 17.2004 5.41758 17.5061L6.52456 16.4939ZM17.4974 17.5061C17.7769 17.2004 17.7557 16.726 17.45 16.4465C17.1444 16.167 16.67 16.1882 16.3904 16.4939L17.4974 17.5061ZM10.7075 1L10.7075 23L12.2075 23L12.2075 1L10.7075 1ZM12.011 22.4939L6.52456 16.4939L5.41758 17.5061L10.904 23.5061L12.011 22.4939ZM12.011 23.5061L17.4974 17.5061L16.3904 16.4939L10.904 22.4939L12.011 23.5061Z" fill="white"/>
</g>
<defs>
<clipPath id="clip0_1788_14192">
<rect width="24" height="21.9457" fill="white" transform="translate(0.484619 24) rotate(-90)"/>
</clipPath>
</defs>
</svg>
