<svg width="22" height="22" viewBox="0 0 22 22" fill="none" xmlns="http://www.w3.org/2000/svg">
<path d="M7.86383 10.4696C7.57093 10.1768 7.09606 10.1768 6.80317 10.4696C6.51027 10.7625 6.51027 11.2374 6.80317 11.5303L7.86383 10.4696ZM10.0835 13.75L9.55317 14.2803C9.84606 14.5732 10.3209 14.5732 10.6138 14.2803L10.0835 13.75ZM16.1138 8.78031C16.4067 8.48742 16.4067 8.01254 16.1138 7.71965C15.8209 7.42676 15.3461 7.42676 15.0532 7.71965L16.1138 8.78031ZM18.1668 1.08331H3.8335V2.58331H18.1668V1.08331ZM1.0835 3.83331V18.1666H2.5835V3.83331H1.0835ZM3.8335 20.9166H18.1668V19.4166H3.8335V20.9166ZM6.80317 11.5303L9.55317 14.2803L10.6138 13.2197L7.86383 10.4696L6.80317 11.5303ZM10.6138 14.2803L16.1138 8.78031L15.0532 7.71965L9.55317 13.2197L10.6138 14.2803ZM19.4168 3.83331V18.1666H20.9168V3.83331H19.4168ZM18.1668 20.9166C19.6856 20.9166 20.9168 19.6854 20.9168 18.1666H19.4168C19.4168 18.857 18.8572 19.4166 18.1668 19.4166V20.9166ZM1.0835 18.1666C1.0835 19.6854 2.31471 20.9166 3.8335 20.9166V19.4166C3.14314 19.4166 2.5835 18.857 2.5835 18.1666H1.0835ZM3.8335 1.08331C2.31472 1.08331 1.0835 2.31453 1.0835 3.83331H2.5835C2.5835 3.14296 3.14314 2.58331 3.8335 2.58331V1.08331ZM18.1668 2.58331C18.8572 2.58331 19.4168 3.14296 19.4168 3.83331H20.9168C20.9168 2.31453 19.6856 1.08331 18.1668 1.08331V2.58331Z" fill="#32D74B"/>
</svg>
