<svg width="24" height="24" viewBox="0 0 24 24" fill="none" xmlns="http://www.w3.org/2000/svg">
    <path d="M16.5303 8.53033C16.8232 8.23744 16.8232 7.76256 16.5303 7.46967C16.2374 7.17678 15.7626 7.17678 15.4697 7.46967L16.5303 8.53033ZM7.46967 15.4697C7.17678 15.7626 7.17678 16.2374 7.46967 16.5303C7.76256 16.8232 8.23744 16.8232 8.53033 16.5303L7.46967 15.4697ZM8.53033 7.46967C8.23744 7.17678 7.76256 7.17678 7.46967 7.46967C7.17678 7.76256 7.17678 8.23744 7.46967 8.53033L8.53033 7.46967ZM15.4697 16.5303C15.7626 16.8232 16.2374 16.8232 16.5303 16.5303C16.8232 16.2374 16.8232 15.7626 16.5303 15.4697L15.4697 16.5303ZM15.4697 7.46967L11.4697 11.4697L12.5303 12.5303L16.5303 8.53033L15.4697 7.46967ZM11.4697 11.4697L7.46967 15.4697L8.53033 16.5303L12.5303 12.5303L11.4697 11.4697ZM7.46967 8.53033L11.4697 12.5303L12.5303 11.4697L8.53033 7.46967L7.46967 8.53033ZM11.4697 12.5303L15.4697 16.5303L16.5303 15.4697L12.5303 11.4697L11.4697 12.5303ZM22.25 12C22.25 17.6609 17.6609 22.25 12 22.25V23.75C18.4893 23.75 23.75 18.4893 23.75 12H22.25ZM12 22.25C6.33908 22.25 1.75 17.6609 1.75 12H0.25C0.25 18.4893 5.51065 23.75 12 23.75V22.25ZM1.75 12C1.75 6.33908 6.33908 1.75 12 1.75V0.25C5.51065 0.25 0.25 5.51065 0.25 12H1.75ZM12 1.75C17.6609 1.75 22.25 6.33908 22.25 12H23.75C23.75 5.51065 18.4893 0.25 12 0.25V1.75Z"
          fill="white"/>
</svg>
