<svg width="26" height="26" viewBox="0 0 26 26" fill="none" xmlns="http://www.w3.org/2000/svg">
<path d="M24 13C24 10.8244 23.3549 8.69767 22.1462 6.88873C20.9375 5.07979 19.2195 3.66989 17.2095 2.83733C15.1995 2.00476 12.9878 1.78692 10.854 2.21136C8.72022 2.6358 6.7602 3.68345 5.22183 5.22183C3.68345 6.7602 2.6358 8.72022 2.21136 10.854C1.78692 12.9878 2.00476 15.1995 2.83733 17.2095C3.66989 19.2195 5.07979 20.9375 6.88873 22.1462C8.69767 23.3549 10.8244 24 13 24L13 23.5948C10.9045 23.5948 8.85615 22.9734 7.11385 21.8092C5.37155 20.6451 4.01358 18.9904 3.21169 17.0545C2.4098 15.1185 2.19998 12.9882 2.60879 10.9331C3.01759 8.87787 4.02664 6.99006 5.50835 5.50835C6.99006 4.02664 8.87787 3.01759 10.9331 2.60879C12.9882 2.19998 15.1185 2.4098 17.0545 3.21169C18.9904 4.01358 20.6451 5.37155 21.8092 7.11385C22.9734 8.85615 23.5948 10.9045 23.5948 13H24Z" stroke="#32D74B" stroke-width="2.68889"/>
</svg>
