<svg width="90" height="90" viewBox="0 0 90 90" fill="none" xmlns="http://www.w3.org/2000/svg">
<circle cx="45" cy="45" r="44.5" stroke="white"/>
<mask id="path-2-inside-1_1864_14403" fill="white">
<path d="M90 45C90 36.0998 87.3608 27.3996 82.4161 19.9993C77.4715 12.5991 70.4434 6.83136 62.2208 3.42542C53.9981 0.0194775 44.9501 -0.871673 36.2209 0.864662C27.4918 2.601 19.4736 6.88683 13.1802 13.1802C6.88683 19.4736 2.601 27.4918 0.864662 36.2209C-0.871673 44.9501 0.0194776 53.9981 3.42542 62.2208C6.83136 70.4434 12.5991 77.4715 19.9993 82.4161C27.3996 87.3608 36.0998 90 45 90L45 88.3423C36.4277 88.3423 28.0479 85.8003 20.9203 81.0378C13.7927 76.2753 8.23739 69.5062 4.95691 61.5864C1.67644 53.6666 0.818114 44.9519 2.49049 36.5443C4.16286 28.1367 8.29082 20.4139 14.3523 14.3523C20.4139 8.29082 28.1367 4.16286 36.5443 2.49049C44.9519 0.818114 53.6666 1.67644 61.5864 4.95691C69.5062 8.23739 76.2753 13.7927 81.0378 20.9203C85.8003 28.0479 88.3423 36.4277 88.3423 45L90 45Z"/>
</mask>
<path d="M90 45C90 36.0998 87.3608 27.3996 82.4161 19.9993C77.4715 12.5991 70.4434 6.83136 62.2208 3.42542C53.9981 0.0194775 44.9501 -0.871673 36.2209 0.864662C27.4918 2.601 19.4736 6.88683 13.1802 13.1802C6.88683 19.4736 2.601 27.4918 0.864662 36.2209C-0.871673 44.9501 0.0194776 53.9981 3.42542 62.2208C6.83136 70.4434 12.5991 77.4715 19.9993 82.4161C27.3996 87.3608 36.0998 90 45 90L45 88.3423C36.4277 88.3423 28.0479 85.8003 20.9203 81.0378C13.7927 76.2753 8.23739 69.5062 4.95691 61.5864C1.67644 53.6666 0.818114 44.9519 2.49049 36.5443C4.16286 28.1367 8.29082 20.4139 14.3523 14.3523C20.4139 8.29082 28.1367 4.16286 36.5443 2.49049C44.9519 0.818114 53.6666 1.67644 61.5864 4.95691C69.5062 8.23739 76.2753 13.7927 81.0378 20.9203C85.8003 28.0479 88.3423 36.4277 88.3423 45L90 45Z" stroke="#32D74B" stroke-width="2" mask="url(#path-2-inside-1_1864_14403)"/>
</svg>
