<svg width="114" height="22" viewBox="0 0 114 22" fill="none" xmlns="http://www.w3.org/2000/svg">
<path d="M44.1144 11.4762C44.1144 12.3276 43.9552 13.1142 43.6369 13.8362C43.3244 14.5529 42.8816 15.1752 42.3087 15.7032C41.7357 16.2259 41.0441 16.6354 40.2338 16.9317C39.4294 17.2227 38.5352 17.3682 37.5513 17.3682H32.6377V5.59242H37.5513C38.5352 5.59242 39.4294 5.7406 40.2338 6.03694C41.0441 6.33329 41.7357 6.74278 42.3087 7.26543C42.8816 7.78808 43.3244 8.41041 43.6369 9.13241C43.9552 9.84903 44.1144 10.6303 44.1144 11.4762ZM41.1106 11.4762C41.1106 10.8943 41.0296 10.369 40.8676 9.90022C40.7055 9.43146 40.4711 9.03543 40.1644 8.71214C39.8634 8.38347 39.493 8.13292 39.0532 7.9605C38.6133 7.78269 38.1127 7.69379 37.5513 7.69379H35.5893V15.2668H37.5513C38.1127 15.2668 38.6133 15.1806 39.0532 15.0082C39.493 14.8303 39.8634 14.5798 40.1644 14.2565C40.4711 13.9278 40.7055 13.5291 40.8676 13.0604C41.0296 12.5916 41.1106 12.0636 41.1106 11.4762Z" fill="white"/>
<path d="M50.6807 8.85762C51.2768 8.85762 51.8208 8.94383 52.3128 9.11625C52.8105 9.28867 53.2359 9.53922 53.5889 9.86789C53.9478 10.1966 54.2256 10.6007 54.4223 11.0802C54.6249 11.5544 54.7262 12.0932 54.7262 12.6967C54.7262 12.8852 54.7175 13.0388 54.7001 13.1573C54.6828 13.2759 54.6509 13.3702 54.6046 13.4402C54.5583 13.5103 54.4947 13.5588 54.4137 13.5857C54.3384 13.6126 54.24 13.6261 54.1185 13.6261H48.9271C49.0139 14.3266 49.2425 14.8357 49.6129 15.1536C49.9833 15.4661 50.4608 15.6224 51.0453 15.6224C51.3578 15.6224 51.627 15.5874 51.8527 15.5173C52.0784 15.4473 52.2781 15.3692 52.4517 15.283C52.6311 15.1967 52.7931 15.1186 52.9378 15.0486C53.0883 14.9785 53.2446 14.9435 53.4066 14.9435C53.6208 14.9435 53.7828 15.0162 53.8928 15.1617L54.6741 16.0588C54.3963 16.3552 54.0953 16.5977 53.7712 16.7862C53.4529 16.9694 53.123 17.1149 52.7816 17.2227C52.4459 17.325 52.1073 17.3951 51.7659 17.4328C51.4302 17.4759 51.109 17.4975 50.8022 17.4975C50.1714 17.4975 49.5782 17.4032 49.0226 17.2146C48.4728 17.0206 47.9895 16.735 47.5728 16.3579C47.1619 15.9807 46.8349 15.5119 46.5918 14.9516C46.3545 14.3912 46.2359 13.7393 46.2359 12.9957C46.2359 12.4353 46.3372 11.9046 46.5397 11.4035C46.7481 10.9024 47.0432 10.4633 47.4252 10.0861C47.813 9.70894 48.2789 9.4099 48.8229 9.18899C49.3727 8.96808 49.992 8.85762 50.6807 8.85762ZM50.7328 10.5872C50.2177 10.5872 49.8155 10.7246 49.5261 10.9994C49.2367 11.2688 49.0457 11.6594 48.9531 12.1713H52.3128C52.3128 11.972 52.2838 11.778 52.226 11.5894C52.1739 11.4008 52.0842 11.2338 51.9569 11.0883C51.8353 10.9374 51.6733 10.8162 51.4707 10.7246C51.2681 10.633 51.0222 10.5872 50.7328 10.5872Z" fill="white"/>
<path d="M61.1234 17.3682H60.3941L56.748 9.32639H57.3991C57.4801 9.32639 57.5438 9.34794 57.5901 9.39105C57.6422 9.42876 57.6798 9.47187 57.7029 9.52036L60.5504 15.8649C60.6083 15.9888 60.6517 16.1073 60.6806 16.2205C60.7095 16.3336 60.7385 16.4468 60.7674 16.5599C60.7964 16.4468 60.8253 16.3336 60.8542 16.2205C60.889 16.1019 60.9324 15.9834 60.9845 15.8649L63.8493 9.52036C63.8782 9.46109 63.9158 9.41529 63.9621 9.38296C64.0142 9.34525 64.075 9.32639 64.1444 9.32639H64.7695L61.1234 17.3682Z" fill="white"/>
<path d="M70.8033 9.19707C71.2894 9.19707 71.738 9.2752 72.1489 9.43146C72.5656 9.58771 72.9244 9.81671 73.2254 10.1184C73.5321 10.4148 73.7694 10.7812 73.9372 11.2176C74.1109 11.6541 74.1977 12.1551 74.1977 12.7209C74.1977 12.8394 74.1774 12.9203 74.1369 12.9634C74.1022 13.0065 74.0443 13.028 73.9633 13.028H67.7214V13.1816C67.7214 13.7851 67.7967 14.3158 67.9471 14.7738C68.0976 15.2318 68.3117 15.617 68.5896 15.9295C68.8674 16.2366 69.203 16.4683 69.5966 16.6246C69.9901 16.7808 70.43 16.859 70.9161 16.859C71.3502 16.859 71.7264 16.8159 72.0447 16.7297C72.363 16.6381 72.6293 16.5384 72.8434 16.4306C73.0633 16.3175 73.2369 16.2178 73.3643 16.1316C73.4916 16.04 73.5842 15.9942 73.6421 15.9942C73.7173 15.9942 73.7752 16.0211 73.8157 16.075L74.0414 16.3336C73.9025 16.4953 73.7173 16.6461 73.4858 16.7862C73.2601 16.9263 73.0054 17.0476 72.7219 17.1499C72.444 17.2469 72.1431 17.325 71.819 17.3843C71.5007 17.4436 71.1795 17.4732 70.8554 17.4732C70.265 17.4732 69.7268 17.3789 69.2407 17.1903C68.7545 16.9964 68.3378 16.7162 67.9905 16.3498C67.6433 15.9834 67.3742 15.5362 67.1832 15.0082C66.998 14.4747 66.9054 13.8659 66.9054 13.1816C66.9054 12.6051 66.9922 12.0743 67.1658 11.5894C67.3452 11.0991 67.5999 10.6788 67.9298 10.3286C68.2654 9.97296 68.6735 9.69547 69.1538 9.49611C69.64 9.29675 70.1898 9.19707 70.8033 9.19707ZM70.812 9.77091C70.3663 9.77091 69.967 9.83556 69.6139 9.96488C69.2609 10.0942 68.9542 10.2801 68.6937 10.5225C68.4391 10.765 68.2307 11.056 68.0687 11.3954C67.9124 11.7349 67.8082 12.1147 67.7561 12.535H73.4511C73.4511 12.104 73.3874 11.7187 73.2601 11.3793C73.1328 11.0344 72.9534 10.7435 72.7219 10.5064C72.4904 10.2693 72.2126 10.0888 71.8884 9.96488C71.5643 9.83556 71.2055 9.77091 70.812 9.77091Z" fill="white"/>
<path d="M77.7178 17.3682V9.32639H78.1519C78.2503 9.32639 78.3197 9.34525 78.3602 9.38296C78.4065 9.42068 78.4326 9.48534 78.4384 9.57693L78.5078 11.2742C78.7856 10.6222 79.156 10.1131 79.619 9.74666C80.082 9.37488 80.6521 9.18899 81.3292 9.18899C81.5897 9.18899 81.8299 9.21593 82.0498 9.26981C82.2697 9.31831 82.4781 9.39104 82.6748 9.48803L82.562 10.0215C82.5446 10.1077 82.4867 10.1508 82.3883 10.1508C82.3536 10.1508 82.3044 10.14 82.2408 10.1184C82.1771 10.0969 82.0961 10.0726 81.9977 10.0457C81.9051 10.0188 81.7893 9.99451 81.6504 9.97296C81.5115 9.95141 81.3524 9.94063 81.173 9.94063C80.519 9.94063 79.9807 10.1292 79.5582 10.5064C79.1415 10.8836 78.803 11.4278 78.5425 12.139V17.3682H77.7178Z" fill="white"/>
<path d="M90.6783 10.3205C90.6378 10.3959 90.5741 10.4336 90.4873 10.4336C90.4237 10.4336 90.3397 10.4013 90.2356 10.3367C90.1372 10.2666 90.0041 10.1912 89.8362 10.1104C89.6742 10.0241 89.4716 9.94871 89.2285 9.88406C88.9912 9.81401 88.699 9.77899 88.3517 9.77899C88.0392 9.77899 87.7527 9.82209 87.4923 9.9083C87.2376 9.98913 87.0177 10.0996 86.8325 10.2397C86.6531 10.3798 86.5113 10.5441 86.4071 10.7327C86.3087 10.9159 86.2595 11.1099 86.2595 11.3146C86.2595 11.5678 86.329 11.778 86.4679 11.945C86.6068 12.112 86.7891 12.2548 87.0148 12.3734C87.2405 12.4919 87.4952 12.5943 87.7788 12.6805C88.0681 12.7667 88.3633 12.8529 88.6643 12.9391C88.9652 13.0253 89.2575 13.1223 89.5411 13.2301C89.8304 13.3325 90.088 13.4618 90.3137 13.618C90.5394 13.7743 90.7217 13.9656 90.8606 14.1919C90.9995 14.4182 91.069 14.693 91.069 15.0162C91.069 15.3665 90.9995 15.6924 90.8606 15.9942C90.7275 16.2959 90.5307 16.5572 90.2703 16.7782C90.0156 16.9991 89.7002 17.1742 89.324 17.3035C88.9478 17.4328 88.5196 17.4975 88.0392 17.4975C87.4315 17.4975 86.9077 17.4086 86.4679 17.2308C86.028 17.0476 85.6345 16.8105 85.2872 16.5195L85.4869 16.2447C85.5158 16.2016 85.5477 16.1693 85.5824 16.1477C85.6171 16.1262 85.6663 16.1154 85.73 16.1154C85.8052 16.1154 85.8978 16.1585 86.0078 16.2447C86.1177 16.3309 86.2595 16.4252 86.4332 16.5276C86.6126 16.6246 86.8325 16.7162 87.0929 16.8024C87.3592 16.8886 87.6862 16.9317 88.0739 16.9317C88.4385 16.9317 88.7597 16.8859 89.0375 16.7943C89.3153 16.6973 89.5469 16.568 89.7321 16.4064C89.9173 16.2447 90.0562 16.0561 90.1488 15.8406C90.2471 15.6197 90.2963 15.388 90.2963 15.1456C90.2963 14.8761 90.2269 14.6525 90.088 14.4747C89.9491 14.2969 89.7668 14.1461 89.5411 14.0221C89.3153 13.8982 89.0578 13.7931 88.7684 13.7069C88.4848 13.6207 88.1897 13.5345 87.8829 13.4483C87.582 13.3621 87.2868 13.2678 86.9974 13.1654C86.7139 13.063 86.4592 12.9337 86.2335 12.7775C86.0078 12.6212 85.8255 12.4326 85.6866 12.2117C85.5477 11.9854 85.4782 11.7052 85.4782 11.3712C85.4782 11.0856 85.5448 10.8108 85.6779 10.5468C85.811 10.2828 85.9991 10.0511 86.2422 9.85173C86.491 9.65237 86.792 9.49342 87.145 9.37488C87.4981 9.25634 87.8945 9.19707 88.3344 9.19707C88.861 9.19707 89.3269 9.26712 89.7321 9.40721C90.143 9.5473 90.5192 9.76282 90.8606 10.0538L90.6783 10.3205Z" fill="white"/>
<path d="M95.7515 9.32639V17.3682H94.9267V9.32639H95.7515ZM96.1161 6.5542C96.1161 6.65119 96.0929 6.74279 96.0466 6.829C96.0061 6.90982 95.9511 6.98256 95.8817 7.04721C95.8122 7.11187 95.7312 7.16306 95.6386 7.20078C95.546 7.23849 95.4476 7.25735 95.3434 7.25735C95.2393 7.25735 95.1409 7.23849 95.0483 7.20078C94.9557 7.16306 94.8746 7.11187 94.8052 7.04721C94.7357 6.98256 94.6808 6.90982 94.6402 6.829C94.5997 6.74279 94.5795 6.65119 94.5795 6.5542C94.5795 6.45721 94.5997 6.36562 94.6402 6.27941C94.6808 6.18781 94.7357 6.10968 94.8052 6.04502C94.8746 5.98037 94.9557 5.92918 95.0483 5.89146C95.1409 5.85375 95.2393 5.83489 95.3434 5.83489C95.4476 5.83489 95.546 5.85375 95.6386 5.89146C95.7312 5.92918 95.8122 5.98037 95.8817 6.04502C95.9511 6.10968 96.0061 6.18781 96.0466 6.27941C96.0929 6.36562 96.1161 6.45721 96.1161 6.5542Z" fill="white"/>
<path d="M107.885 5.59242V7.69379H102.693V10.6761H107.016V12.7856H102.693V17.3682H99.7415V5.59242H107.885Z" fill="white"/>
<path d="M113.486 8.98694V17.3682H110.795V8.98694H113.486ZM113.799 6.6916C113.799 6.89096 113.756 7.07954 113.669 7.25735C113.582 7.42977 113.463 7.58333 113.313 7.71803C113.162 7.84735 112.986 7.95242 112.783 8.03324C112.586 8.10867 112.375 8.14639 112.149 8.14639C111.93 8.14639 111.724 8.10867 111.533 8.03324C111.342 7.95242 111.171 7.84735 111.021 7.71803C110.876 7.58333 110.76 7.42977 110.674 7.25735C110.593 7.07954 110.552 6.89096 110.552 6.6916C110.552 6.48685 110.593 6.29557 110.674 6.11776C110.76 5.93996 110.876 5.7837 111.021 5.649C111.171 5.51429 111.342 5.40923 111.533 5.33379C111.724 5.25836 111.93 5.22064 112.149 5.22064C112.375 5.22064 112.586 5.25836 112.783 5.33379C112.986 5.40923 113.162 5.51429 113.313 5.649C113.463 5.7837 113.582 5.93996 113.669 6.11776C113.756 6.29557 113.799 6.48685 113.799 6.6916Z" fill="white"/>
<path d="M5.80977 11L16.2568 0.359581C16.7275 -0.119859 17.4907 -0.119861 17.9614 0.359579L27.5561 10.1319C28.0268 10.6113 28.0268 11.3887 27.5561 11.8681L17.9614 21.6404C17.4907 22.1199 16.7275 22.1199 16.2568 21.6404L5.80977 11Z" fill="#5500FC"/>
<path d="M5.56005 11.2544C5.08932 11.7339 5.08933 12.5112 5.56005 12.9906L10.0818 17.5961L9.00562 18.6922C8.53489 19.1717 7.7717 19.1717 7.30098 18.6922L1.15187 12.4293C0.681147 11.9498 0.681147 11.1725 1.15187 10.6931L7.30098 4.43011C7.7717 3.95067 8.53489 3.95067 9.00562 4.43011L10.633 6.08758L5.56005 11.2544Z" fill="#5500FC"/>
</svg>
