<svg width="24" height="25" viewBox="0 0 24 25" fill="none" xmlns="http://www.w3.org/2000/svg">
<g opacity="0.7">
<path d="M1 5.17975C0.585786 5.17975 0.25 5.51553 0.25 5.92975C0.25 6.34396 0.585786 6.67975 1 6.67975V5.17975ZM23 6.67975C23.4142 6.67975 23.75 6.34396 23.75 5.92975C23.75 5.51553 23.4142 5.17975 23 5.17975V6.67975ZM1 12.1797C0.585786 12.1797 0.25 12.5155 0.25 12.9297C0.25 13.344 0.585786 13.6797 1 13.6797V12.1797ZM13 13.6797C13.4142 13.6797 13.75 13.344 13.75 12.9297C13.75 12.5155 13.4142 12.1797 13 12.1797V13.6797ZM23 20.6797C23.4142 20.6797 23.75 20.344 23.75 19.9297C23.75 19.5155 23.4142 19.1797 23 19.1797V20.6797ZM1 19.1797C0.585786 19.1797 0.25 19.5155 0.25 19.9297C0.25 20.344 0.585786 20.6797 1 20.6797V19.1797ZM1 6.67975H23V5.17975H1V6.67975ZM1 13.6797H13V12.1797H1V13.6797ZM23 19.1797H1V20.6797H23V19.1797Z" fill="white"/>
</g>
</svg>
