<svg width="24" height="25" viewBox="0 0 24 25" fill="none" xmlns="http://www.w3.org/2000/svg">
<g opacity="0.7">
<path d="M23.5 12.9297V9.92975C23.5 8.82518 22.6046 7.92975 21.5 7.92975M23.5 12.9297H19.5C18.3954 12.9297 17.5 13.8252 17.5 14.9297C17.5 16.0343 18.3954 16.9297 19.5 16.9297H23.5M23.5 12.9297V16.9297M23.5 16.9297V19.9297C23.5 21.0343 22.6046 21.9297 21.5 21.9297H3.5C2.39543 21.9297 1.5 21.0343 1.5 19.9297V5.92975M21.5 7.92975H3.5C2.39543 7.92975 1.5 7.03432 1.5 5.92975M21.5 7.92975V5.92975C21.5 4.82518 20.6046 3.92975 19.5 3.92975H3.5C2.39543 3.92975 1.5 4.82518 1.5 5.92975" stroke="white" stroke-linecap="round"/>
</g>
</svg>
