<svg width="25" height="24" viewBox="0 0 25 24" fill="none" xmlns="http://www.w3.org/2000/svg">
<g clip-path="url(#clip0_2460:305)">
<path d="M19.55 16.95C20.9 15.15 21.65 13.05 21.65 10.65C21.65 4.8 17 0 11.15 0C5.3 0 0.5 4.8 0.5 10.65C0.5 16.5 5.3 21.3 11.15 21.3C13.55 21.3 15.8 20.55 17.45 19.2L21.95 23.7C22.25 24 22.7 24.15 23 24.15C23.3 24.15 23.75 24 24.05 23.7C24.65 23.1 24.65 22.2 24.05 21.6L19.55 16.95ZM11.15 18.15C6.95 18.15 3.5 14.85 3.5 10.65C3.5 6.45 6.95 3 11.15 3C15.35 3 18.8 6.45 18.8 10.65C18.8 14.85 15.35 18.15 11.15 18.15Z" fill="#8CA0C6"/>
</g>
<defs>
<clipPath id="clip0_2460:305">
<rect width="24" height="24" fill="white" transform="translate(0.5)"/>
</clipPath>
</defs>
</svg>
