<svg width="24" height="25" viewBox="0 0 24 25" fill="none" xmlns="http://www.w3.org/2000/svg">
<g opacity="0.7">
<path d="M1 13.6797C0.585787 13.6797 0.25 13.344 0.25 12.9297C0.25 12.5155 0.585787 12.1797 1 12.1797V13.6797ZM23 12.9297L23.5303 12.3994C23.8232 12.6923 23.8232 13.1672 23.5303 13.4601L23 12.9297ZM16.4697 7.46008C16.1768 7.16719 16.1768 6.69231 16.4697 6.39942C16.7626 6.10653 17.2374 6.10653 17.5303 6.39942L16.4697 7.46008ZM17.5303 19.4601C17.2374 19.753 16.7626 19.753 16.4697 19.4601C16.1768 19.1672 16.1768 18.6923 16.4697 18.3994L17.5303 19.4601ZM1 12.1797H23V13.6797H1V12.1797ZM22.4697 13.4601L16.4697 7.46008L17.5303 6.39942L23.5303 12.3994L22.4697 13.4601ZM23.5303 13.4601L17.5303 19.4601L16.4697 18.3994L22.4697 12.3994L23.5303 13.4601Z" fill="white"/>
</g>
</svg>
