<svg width="188" height="41" viewBox="0 0 188 41" fill="none" xmlns="http://www.w3.org/2000/svg">
<path fill-rule="evenodd" clip-rule="evenodd" d="M22.8555 6.76474C22.4603 6.504 21.743 6.17509 20.7036 5.77798C19.6639 5.38088 18.9424 5.02436 18.5385 4.70843C18.1349 4.3925 17.9328 3.95611 17.9328 3.39958C17.9328 2.84305 18.1375 2.40406 18.5472 2.08228C18.9565 1.76051 19.4964 1.59978 20.1666 1.59978C20.8367 1.59978 21.3821 1.78389 21.803 2.15177C22.2242 2.51997 22.4346 3.04306 22.4346 3.72135H24.0755C24.0755 2.55634 23.6944 1.64459 22.9328 0.986754C22.1709 0.328918 21.2534 0 20.1794 0C19.1057 0 18.1933 0.30554 17.4433 0.917269C16.6929 1.529 16.3179 2.35048 16.3179 3.38237C16.3179 4.18242 16.5123 4.81688 16.9021 5.28672C17.1081 5.53576 17.3057 5.74616 17.4946 5.91695C17.6839 6.08807 18.0817 6.32282 18.689 6.62122C19.2959 6.91994 19.8114 7.12125 20.2352 7.22548C21.051 7.58005 21.7199 7.86903 22.1469 8.18204C22.5732 8.49505 22.7869 8.92559 22.7869 9.47336C22.7869 10.0211 22.5649 10.4634 22.1209 10.7994C21.6772 11.1355 21.0645 11.3037 20.2827 11.3037C19.5009 11.3037 18.8635 11.1053 18.371 10.7082C17.8783 10.3111 17.6322 9.74448 17.6322 9.00807H16C16 10.2429 16.4193 11.2053 17.2585 11.8949C18.0974 12.5849 19.1099 12.9298 20.2955 12.9298C21.4809 12.9298 22.4661 12.6138 23.2508 11.982C24.0354 11.3501 24.4233 10.4893 24.415 9.39933C24.4063 8.30964 23.8866 7.43134 22.8555 6.76474Z" fill="white"/>
<path fill-rule="evenodd" clip-rule="evenodd" d="M33.7209 0.350281H25.6226V1.90883H28.8636V12.6972H30.4628V1.90883H33.7209V0.350281Z" fill="white"/>
<path fill-rule="evenodd" clip-rule="evenodd" d="M37.5002 0L33 12.3469H34.7269C34.7269 12.3469 35.1654 10.9731 35.5212 10.4114C37.0671 7.97261 39.6374 7.67519 40.4635 7.69759L42.1108 12.3469H43.8376L39.3291 0H37.5002ZM36.5192 7.28912L38.419 1.9287L39.9075 6.12898C39.0587 6.19197 37.8213 6.45043 36.5192 7.28912Z" fill="white"/>
<path fill-rule="evenodd" clip-rule="evenodd" d="M65.3485 0.350281H63.3579L58.271 5.94676V0.350281H56.6548V12.6972H58.271V6.77343L63.5366 12.6972H65.5185L59.9639 6.36886L65.3485 0.350281Z" fill="white"/>
<path fill-rule="evenodd" clip-rule="evenodd" d="M73.3703 7.97018L68.615 0.350189H66.7861V12.6971H69.1934V5.05992L73.9317 12.6971H75.7606V0.350189H73.3703V7.97018Z" fill="white"/>
<path fill-rule="evenodd" clip-rule="evenodd" d="M79.6558 7.59991H83.9604V5.32703H79.6558V2.68368H84.3941V0.350403H77.2485V12.697H84.4791V10.3725H79.6558V7.59991Z" fill="white"/>
<path fill-rule="evenodd" clip-rule="evenodd" d="M85.7144 0.350189V2.68379H88.6404V12.6971H91.0397V2.68379H93.9827V0.350189H85.7144Z" fill="white"/>
<path fill-rule="evenodd" clip-rule="evenodd" d="M51.5976 8.25223C51.3513 8.02169 51.1014 7.82135 50.8508 7.64504C51.6374 7.5275 52.485 7.09241 53.0307 6.38587C53.5282 5.74199 53.7454 4.99097 53.7454 4.18183C53.7454 3.11974 53.3739 2.21579 52.6309 1.46963C51.888 0.72348 50.9948 0.350403 49.9513 0.350403H45.5107V12.697H47.1269V8.04085C48.0108 8.06163 49.3251 8.28729 50.5332 9.41724C51.6916 10.5024 52.492 11.8505 52.9043 12.6964H54.6209C54.2654 11.7619 53.2469 9.79584 51.5976 8.25223ZM49.9513 1.89141C50.5525 1.89141 51.0657 2.11416 51.4911 2.55867C51.9165 3.0035 52.1289 3.54315 52.1289 4.17728C52.1289 4.81174 51.9229 5.3621 51.4911 5.80888C50.7209 6.60569 48.9408 6.44691 47.1747 6.45503C47.1587 6.4547 47.1427 6.45406 47.1269 6.45373V1.89141H49.9513Z" fill="white"/>
<path d="M16.3 27.9297L19.528 19.5297H20.596L23.788 27.9297H22.756L21.892 25.6137H18.148L17.272 27.9297H16.3ZM19.312 22.5537L18.496 24.6897H21.544L20.716 22.4937C20.62 22.2377 20.504 21.9217 20.368 21.5457C20.24 21.1617 20.124 20.8097 20.02 20.4897C19.908 20.8337 19.792 21.1817 19.672 21.5337C19.552 21.8857 19.432 22.2257 19.312 22.5537ZM25.3219 27.9297V19.5297H26.2699V27.0057H30.3019V27.9297H25.3219ZM32.1423 27.9297V19.5297H35.4663C35.9063 19.5297 36.3023 19.6417 36.6543 19.8657C37.0063 20.0817 37.2863 20.3777 37.4943 20.7537C37.7023 21.1297 37.8063 21.5537 37.8063 22.0257C37.8063 22.5217 37.7023 22.9657 37.4943 23.3577C37.2863 23.7497 37.0063 24.0577 36.6543 24.2817C36.3023 24.5057 35.9063 24.6177 35.4663 24.6177H33.0903V27.9297H32.1423ZM33.0903 23.6937H35.5143C35.7623 23.6937 35.9823 23.6217 36.1743 23.4777C36.3743 23.3337 36.5343 23.1337 36.6543 22.8777C36.7743 22.6217 36.8343 22.3337 36.8343 22.0137C36.8343 21.5737 36.7063 21.2057 36.4503 20.9097C36.1943 20.6057 35.8823 20.4537 35.5143 20.4537H33.0903V23.6937ZM39.6188 27.9297V19.5297H40.5668V23.2737H45.2348V19.5297H46.1828V27.9297H45.2348V24.1977H40.5668V27.9297H39.6188ZM47.718 27.9297L50.946 19.5297H52.014L55.206 27.9297H54.174L53.31 25.6137H49.566L48.69 27.9297H47.718ZM50.73 22.5537L49.914 24.6897H52.962L52.134 22.4937C52.038 22.2377 51.922 21.9217 51.786 21.5457C51.658 21.1617 51.542 20.8097 51.438 20.4897C51.326 20.8337 51.21 21.1817 51.09 21.5337C50.97 21.8857 50.85 22.2257 50.73 22.5537Z" fill="#EE5F5F"/>
</svg>
