<svg width="131" height="26" viewBox="0 0 131 26" fill="none" xmlns="http://www.w3.org/2000/svg">
<path d="M115.83 12.7447C115.155 12.2978 114.41 11.9801 113.706 11.5828C113.236 11.3512 112.788 11.0793 112.365 10.7703C112.059 10.4885 111.9 10.0818 111.933 9.66717C111.966 9.25257 112.187 8.8761 112.534 8.64613C113.033 8.27986 113.683 8.19081 114.262 8.40946C114.841 8.62811 115.271 9.1248 115.403 9.72945C115.406 9.75931 115.433 9.78123 115.463 9.77911H116.992C117.01 9.78084 117.028 9.77365 117.04 9.75982C117.051 9.74598 117.056 9.72725 117.051 9.70959C117.025 8.82959 116.615 8.00522 115.929 7.45267C115.309 6.97182 114.547 6.70991 113.763 6.70789C109.722 6.70789 109.354 10.987 111.528 12.3376C111.776 12.4964 113.911 13.5689 114.665 14.0357C115.373 14.4261 115.662 15.2939 115.331 16.0308C114.96 16.6919 114.24 17.0789 113.484 17.0238C112.706 17.0258 112.013 16.5357 111.756 15.8024C111.718 15.643 111.698 15.4797 111.696 15.3158C111.694 15.2838 111.669 15.2584 111.637 15.2562H109.979C109.947 15.2584 109.922 15.2838 109.919 15.3158C109.811 16.281 110.237 17.2285 111.032 17.7876C111.739 18.3252 112.605 18.6111 113.494 18.6001C115.758 18.6001 116.929 17.319 117.167 15.9893C117.442 14.7347 116.909 13.4413 115.83 12.7447Z" fill="white"/>
<path d="M43.8401 6.92726H42.3054C42.2795 6.92784 42.2563 6.94332 42.2458 6.96699L40.8853 11.4547C40.8774 11.4809 40.8532 11.4988 40.8258 11.4988C40.7984 11.4988 40.7742 11.4809 40.7662 11.4547L39.4057 6.96699C39.3987 6.94063 39.3732 6.92362 39.3461 6.92726H36.8184C36.7864 6.92945 36.761 6.95489 36.7588 6.98685V18.4439C36.761 18.4759 36.7864 18.5013 36.8184 18.5035H38.4668C38.4988 18.5013 38.5242 18.4759 38.5264 18.4439V9.73668C38.5268 9.707 38.5484 9.68187 38.5777 9.677C38.607 9.67212 38.6356 9.68888 38.6456 9.71682L40.016 14.2307L40.1153 14.5484C40.1223 14.5748 40.1478 14.5918 40.1749 14.5882H41.446C41.4718 14.5876 41.4951 14.5721 41.5055 14.5484L41.6049 14.2307L42.9753 9.71682C42.9822 9.68539 43.0125 9.66488 43.0443 9.67017C43.076 9.67547 43.0981 9.7047 43.0944 9.73668V18.4439C43.0966 18.4759 43.122 18.5013 43.154 18.5035H44.8124C44.8444 18.5013 44.8698 18.4759 44.872 18.4439V6.98685C44.8698 6.95489 44.8444 6.92945 44.8124 6.92726H43.8401Z" fill="white"/>
<path d="M90.4436 6.92726C90.4177 6.92784 90.3945 6.94332 90.384 6.96699L89.0236 11.4547C89.0156 11.4809 88.9914 11.4988 88.964 11.4988C88.9366 11.4988 88.9124 11.4809 88.9044 11.4547L87.5439 6.96699C87.5369 6.94063 87.5114 6.92362 87.4843 6.92726H84.9629C84.9309 6.92945 84.9055 6.95489 84.9033 6.98685V18.4439C84.9055 18.4759 84.9309 18.5013 84.9629 18.5035H86.6186C86.6505 18.5013 86.676 18.4759 86.6782 18.4439V9.73668C86.6786 9.707 86.7002 9.68187 86.7295 9.677C86.7587 9.67212 86.7873 9.68888 86.7973 9.71682L88.1677 14.2307L88.267 14.5484C88.2741 14.5748 88.2996 14.5918 88.3266 14.5882H89.5977C89.6236 14.5876 89.6468 14.5721 89.6573 14.5484L89.7566 14.2307L91.127 9.71682C91.137 9.68888 91.1656 9.67212 91.1949 9.677C91.2242 9.68187 91.2458 9.707 91.2462 9.73668V18.4439C91.2484 18.4759 91.2738 18.5013 91.3058 18.5035H92.9641C92.9961 18.5013 93.0215 18.4759 93.0237 18.4439V6.98685C93.0215 6.95489 92.9961 6.92945 92.9641 6.92726H90.4436Z" fill="white"/>
<path d="M69.0579 6.9272H61.2246C61.1927 6.92945 61.1672 6.95489 61.165 6.98685V8.41683C61.1672 8.44879 61.1927 8.47423 61.2246 8.47642H64.2525V18.4448C64.2547 18.4768 64.2801 18.5022 64.3121 18.5044H65.9705C66.0024 18.5022 66.0279 18.4768 66.0301 18.4448V8.47642H69.0579C69.0899 8.47423 69.1154 8.44879 69.1176 8.41683V6.98685C69.1183 6.97082 69.1123 6.9552 69.1009 6.94385C69.0896 6.93251 69.074 6.92648 69.0579 6.9272Z" fill="white"/>
<path d="M78.8372 18.5035H80.3467C80.366 18.503 80.3841 18.4937 80.3957 18.4782C80.4074 18.4627 80.4112 18.4427 80.4063 18.424L77.289 6.92726C77.282 6.90091 77.2564 6.88389 77.2294 6.88754H75.0628C75.0369 6.88812 75.0137 6.90359 75.0032 6.92726L71.8859 18.424C71.8809 18.4427 71.8848 18.4627 71.8964 18.4782C71.9081 18.4937 71.9261 18.503 71.9455 18.5035H73.4549C73.4808 18.5029 73.504 18.4874 73.5145 18.4637L74.4173 15.1181C74.4243 15.0917 74.4498 15.0747 74.4769 15.0784H77.8171C77.843 15.0789 77.8662 15.0944 77.8767 15.1181L78.7795 18.4637C78.7918 18.485 78.813 18.4995 78.8372 18.5035ZM74.8759 13.4398L76.0874 8.9621C76.0954 8.93589 76.1196 8.91798 76.147 8.91798C76.1744 8.91798 76.1986 8.93589 76.2066 8.9621L77.4181 13.4398C77.4231 13.4586 77.4192 13.4785 77.4076 13.494C77.396 13.5095 77.3779 13.5188 77.3585 13.5193H74.9364C74.9169 13.5191 74.8985 13.5099 74.8867 13.4944C74.8749 13.4788 74.8709 13.4587 74.8759 13.4398Z" fill="white"/>
<path d="M104.571 18.5035H106.081C106.1 18.503 106.118 18.4937 106.13 18.4782C106.141 18.4627 106.145 18.4427 106.14 18.424L103.023 6.92726C103.016 6.90091 102.991 6.88389 102.964 6.88754H100.797C100.771 6.88812 100.748 6.90359 100.737 6.92726L97.62 18.424C97.6154 18.4427 97.6194 18.4625 97.631 18.4779C97.6425 18.4933 97.6604 18.5027 97.6796 18.5035H99.1891C99.2149 18.5029 99.2381 18.4874 99.2486 18.4637L100.151 15.1181C100.158 15.0917 100.184 15.0747 100.211 15.0784H103.551C103.577 15.0789 103.6 15.0944 103.611 15.1181L104.514 18.4637C104.524 18.4868 104.546 18.5022 104.571 18.5035ZM100.61 13.4398L101.822 8.9621C101.83 8.93589 101.854 8.91798 101.881 8.91798C101.909 8.91798 101.933 8.93589 101.941 8.9621L103.152 13.4398C103.157 13.4586 103.153 13.4785 103.142 13.494C103.13 13.5095 103.112 13.5188 103.093 13.5193H100.67C100.651 13.5191 100.633 13.5099 100.621 13.4944C100.609 13.4788 100.605 13.4587 100.61 13.4398Z" fill="white"/>
<path d="M51.6039 16.8053V13.2511C51.6061 13.2192 51.6315 13.1937 51.6635 13.1916H56.0816C56.1136 13.1894 56.139 13.1639 56.1412 13.132V11.702C56.139 11.67 56.1136 11.6446 56.0816 11.6424H51.6635C51.6315 11.6402 51.6061 11.6148 51.6039 11.5828V8.545C51.6061 8.51304 51.6315 8.4876 51.6635 8.48542H56.6883C56.7202 8.48323 56.7457 8.45779 56.7479 8.42583V6.99585C56.7457 6.96389 56.7202 6.93845 56.6883 6.93626H49.8877C49.8557 6.93845 49.8303 6.96389 49.8281 6.99585V18.443C49.8303 18.4749 49.8557 18.5004 49.8877 18.5025H56.8968C56.9288 18.5004 56.9542 18.4749 56.9564 18.443V16.9335C56.9542 16.9016 56.9288 16.8761 56.8968 16.8739H51.6544C51.6231 16.8665 51.6017 16.8375 51.6039 16.8053Z" fill="white"/>
<path d="M130.984 18.4024L125.245 12.4748C125.225 12.452 125.225 12.4181 125.245 12.3954L130.408 7.03381C130.426 7.01788 130.432 6.99245 130.423 6.97022C130.414 6.94799 130.392 6.93371 130.368 6.93447H128.253C128.237 6.93477 128.223 6.94207 128.213 6.95436L123.835 11.5016C123.819 11.5185 123.794 11.5238 123.772 11.5151C123.75 11.5064 123.736 11.4853 123.736 11.4619V6.99408C123.733 6.96212 123.708 6.93668 123.676 6.93447H122.018C121.986 6.93668 121.96 6.96212 121.958 6.99408V18.4511C121.96 18.4831 121.986 18.5085 122.018 18.5107H123.676C123.708 18.5085 123.733 18.4831 123.736 18.4511V13.4101C123.736 13.3604 123.805 13.3306 123.835 13.3703L128.8 18.4936C128.811 18.504 128.825 18.511 128.84 18.5134H130.955C130.991 18.5035 131.02 18.434 130.984 18.4024Z" fill="white"/>
<path d="M25.4227 0.761337L15.3857 8.20738L17.2527 3.81902L25.4227 0.761337Z" fill="#E17726" stroke="#E17726" stroke-linecap="round" stroke-linejoin="round"/>
<path d="M2.271 0.761337L12.2186 8.27689L10.4411 3.81902L2.271 0.761337Z" fill="#E27625" stroke="#E27625" stroke-linecap="round" stroke-linejoin="round"/>
<path d="M21.8091 18.0268L19.1387 22.1172L24.8577 23.6962L26.4953 18.1171L21.8091 18.0268Z" fill="#E27625" stroke="#E27625" stroke-linecap="round" stroke-linejoin="round"/>
<path d="M1.2085 18.1171L2.83348 23.6971L8.54259 22.1181L5.88484 18.0268L1.2085 18.1171Z" fill="#E27625" stroke="#E27625" stroke-linecap="round" stroke-linejoin="round"/>
<path d="M8.23829 11.1161L6.64941 13.5184L12.3089 13.7766L12.1202 7.67113L8.23829 11.1161Z" fill="#E27625" stroke="#E27625" stroke-linecap="round" stroke-linejoin="round"/>
<path d="M19.4563 11.1161L15.5148 7.60163L15.3857 13.7766L21.0452 13.5184L19.4563 11.1161Z" fill="#E27625" stroke="#E27625" stroke-linecap="round" stroke-linejoin="round"/>
<path d="M8.54541 22.1173L11.9705 20.4589L9.02207 18.1559L8.54541 22.1173Z" fill="#E27625" stroke="#E27625" stroke-linecap="round" stroke-linejoin="round"/>
<path d="M15.7231 20.4589L19.1383 22.1173L18.6716 18.1559L15.7231 20.4589Z" fill="#E27625" stroke="#E27625" stroke-linecap="round" stroke-linejoin="round"/>
<path d="M19.1383 22.1172L15.7231 20.4588L16.0012 22.6824L15.9714 23.6258L19.1383 22.1172Z" fill="#D5BFB2" stroke="#D5BFB2" stroke-linecap="round" stroke-linejoin="round"/>
<path d="M8.54541 22.1173L11.7223 23.6268L11.7024 22.6834L11.9732 20.4598L8.54541 22.1173Z" fill="#D5BFB2" stroke="#D5BFB2" stroke-linecap="round" stroke-linejoin="round"/>
<path d="M11.7816 16.6862L8.94238 15.852L10.9474 14.9285L11.7816 16.6862Z" fill="#233447" stroke="#233447" stroke-linecap="round" stroke-linejoin="round"/>
<path d="M15.9121 16.6862L16.7463 14.9285L18.7612 15.852L15.9121 16.6862Z" fill="#233447" stroke="#233447" stroke-linecap="round" stroke-linejoin="round"/>
<path d="M8.54549 22.1172L9.04202 18.0268L5.88232 18.1171L8.54549 22.1172Z" fill="#CC6228" stroke="#CC6228" stroke-linecap="round" stroke-linejoin="round"/>
<path d="M18.6528 18.0268L19.1394 22.1172L21.8125 18.1171L18.6528 18.0268Z" fill="#CC6228" stroke="#CC6228" stroke-linecap="round" stroke-linejoin="round"/>
<path d="M21.0462 13.5193L15.3867 13.7774L15.913 16.6862L16.7472 14.9285L18.7631 15.852L21.0462 13.5193Z" fill="#CC6228" stroke="#CC6228" stroke-linecap="round" stroke-linejoin="round"/>
<path d="M8.94294 15.852L10.948 14.9285L11.7821 16.6862L12.3085 13.7774L6.6499 13.5193L8.94294 15.852Z" fill="#CC6228" stroke="#CC6228" stroke-linecap="round" stroke-linejoin="round"/>
<path d="M6.64941 13.5194L9.02189 18.156L8.94245 15.853L6.64941 13.5194Z" fill="#E27525" stroke="#E27525" stroke-linecap="round" stroke-linejoin="round"/>
<path d="M18.7626 15.852L18.6724 18.155L21.0448 13.5184L18.7626 15.852Z" fill="#E27525" stroke="#E27525" stroke-linecap="round" stroke-linejoin="round"/>
<path d="M12.309 13.7775L11.7827 16.6862L12.4481 20.1212L12.597 15.5938L12.309 13.7775Z" fill="#E27525" stroke="#E27525" stroke-linecap="round" stroke-linejoin="round"/>
<path d="M15.3865 13.7775L15.1084 15.583L15.2474 20.1203L15.9128 16.6853L15.3865 13.7775Z" fill="#E27525" stroke="#E27525" stroke-linecap="round" stroke-linejoin="round"/>
<path d="M15.9119 16.6862L15.2466 20.1212L15.7232 20.4589L18.6717 18.1559L18.762 15.8529L15.9119 16.6862Z" fill="#F5841F" stroke="#F5841F" stroke-linecap="round" stroke-linejoin="round"/>
<path d="M8.94238 15.852L9.02183 18.155L11.9703 20.458L12.4469 20.1203L11.7816 16.6853L8.94238 15.852Z" fill="#F5841F" stroke="#F5841F" stroke-linecap="round" stroke-linejoin="round"/>
<path d="M15.9716 23.6267L16.0014 22.6833L15.7432 22.4648H11.9516L11.7033 22.6833L11.7232 23.6267L8.54541 22.1172L9.65762 23.0308L11.9145 24.5899H15.7766L18.0398 23.0308L19.1421 22.1172L15.9716 23.6267Z" fill="#C0AC9D" stroke="#C0AC9D" stroke-linecap="round" stroke-linejoin="round"/>
<path d="M15.7234 20.4589L15.2468 20.1212H12.4482L11.9715 20.4589L11.7007 22.6824L11.9489 22.4639H15.7406L15.9988 22.6824L15.7234 20.4589Z" fill="#161616" stroke="#161616" stroke-linecap="round" stroke-linejoin="round"/>
<path d="M25.85 8.69397L26.6941 4.58366L25.4239 0.761337L15.7236 7.95912L19.4566 11.1188L24.7288 12.6535L25.8906 11.293L25.3842 10.9256L26.1885 10.1908L25.5728 9.7141L26.3772 9.09841L25.85 8.69397Z" fill="#763E1A" stroke="#763E1A" stroke-linecap="round" stroke-linejoin="round"/>
<path d="M1 4.58366L1.85402 8.69397L1.31236 9.10112L2.12485 9.71681L1.50916 10.1935L2.31353 10.9283L1.80708 11.2958L2.96894 12.6562L8.24111 11.1215L11.9741 7.96182L2.2711 0.761337L1 4.58366Z" fill="#763E1A" stroke="#763E1A" stroke-linecap="round" stroke-linejoin="round"/>
<path d="M24.7281 12.6508L19.456 11.1161L21.0448 13.5184L18.6724 18.1577L21.8095 18.118H26.4958L24.7281 12.6508Z" fill="#F5841F" stroke="#F5841F" stroke-linecap="round" stroke-linejoin="round"/>
<path d="M8.23738 11.1161L2.96521 12.6508L1.20752 18.1117H5.88386L9.02099 18.1514L6.64851 13.5148L8.23738 11.1161Z" fill="#F5841F" stroke="#F5841F" stroke-linecap="round" stroke-linejoin="round"/>
<path d="M15.3864 13.7766L15.724 7.95821L17.2533 3.81812H10.4419L11.9712 7.95821L12.3088 13.7766L12.4379 15.6038L12.4478 20.1176H15.2464L15.2564 15.6038L15.3864 13.7766Z" fill="#F5841F" stroke="#F5841F" stroke-linecap="round" stroke-linejoin="round"/>
</svg>
